<svg width="50" height="50" viewBox="0 0 50 50" fill="none" xmlns="http://www.w3.org/2000/svg">
<circle cx="25" cy="25" r="24.5" fill="white" stroke="black"/>
<g clip-path="url(#clip0_410_11453)">
<path d="M30.5 15.917C29.3739 15.9345 28.2724 16.2488 27.3067 16.8283C26.341 17.4077 25.5453 18.2317 25 19.217C24.4546 18.2317 23.6589 17.4077 22.6932 16.8283C21.7275 16.2488 20.626 15.9345 19.5 15.917C17.7049 15.995 16.0137 16.7802 14.7957 18.1012C13.5778 19.4222 12.9322 21.1715 13 22.967C13 29.742 23.956 37.567 24.422 37.899L25 38.308L25.578 37.899C26.044 37.569 37 29.742 37 22.967C37.0677 21.1715 36.4221 19.4222 35.2042 18.1012C33.9863 16.7802 32.295 15.995 30.5 15.917Z" fill="#DF6C4F"/>
</g>
<defs>
<clipPath id="clip0_410_11453">
<rect width="24" height="24" fill="white" transform="translate(13 15)"/>
</clipPath>
</defs>
</svg>
