<svg width="148" height="148" viewBox="0 0 148 148" fill="none" xmlns="http://www.w3.org/2000/svg">
<g filter="url(#filter0_d_410_10193)">
<circle cx="74" cy="72" r="60" fill="white"/>
</g>
<path d="M71.75 32.1562C64.0625 33.125 57.125 38.2656 53.3437 45.8125C51.7031 49.0938 50.875 52.5312 50.875 56.125V57.9375H49.0781C47.0937 57.9375 46.4375 58.1094 45.6719 58.8438C44.7187 59.7344 44.7031 59.8281 44.6562 64.3281C44.5937 68.7812 44.6875 69.5312 45.3437 70.4062C46.125 71.4219 46.5937 71.5312 50.0156 71.5312H53.0937L53.5469 71.0781L54 70.625V62.5625C54 57.7031 54.0625 54.0469 54.1719 53.3125C55.0781 46.7812 59.7969 40.2812 65.9062 37.1875C67.4531 36.3906 68.875 35.8906 70.7344 35.4844C72.1875 35.1719 75.3906 35.1406 76.9687 35.4219C82.75 36.4688 88.1094 40.5 91.4375 46.3281C92.2656 47.7812 92.9531 49.5156 93.5 51.5312L93.9062 53.0156L93.9687 60.7031L94.0156 68.4062H92.9687H91.9375L92.0156 67.9688C92.0781 67.7344 92.2344 67.0469 92.375 66.4531C92.5937 65.5469 92.6406 64.2656 92.7031 59.1094C92.7656 52.2188 92.7812 52.2812 91.8125 51.8125C91.2969 51.5781 91.1875 51.5781 89.7812 51.8594C87.8281 52.2656 83.5 52.4219 81.3906 52.1719C79.9062 51.9844 76.9375 51.375 76.2344 51.1094C75.9219 51 76.0156 50.8906 77.1719 50.125C78.5937 49.1719 79.1562 48.4688 79.1562 47.6719C79.1562 46.8906 78.4531 46.2188 77.625 46.2188C77.125 46.2188 76.875 46.3438 76.1406 46.9844C75.6562 47.4062 74.8125 47.9688 74.25 48.2344C71.25 49.6406 64.7656 50.9531 57.9219 51.5156C56.3125 51.6406 56.1094 51.7031 55.7344 52.0625L55.3281 52.4688L55.2812 58.1406C55.25 61.7188 55.2969 64.3281 55.4062 65.25C56.4062 73.375 62.3125 79.7656 70.4062 81.4688C72.2344 81.8594 75.7812 81.8594 77.5937 81.4688C81.9844 80.5312 85.8594 78.1094 88.5937 74.5938C89.1406 73.9062 89.8125 72.9219 90.0781 72.4375L90.5781 71.5469H95.8125C100.984 71.5469 101.062 71.5469 101.703 71.1875C102.437 70.7812 102.984 70.0469 103.234 69.1406C103.328 68.75 103.375 66.9844 103.344 64.3594C103.297 59.8281 103.281 59.7344 102.328 58.8438C101.562 58.1094 100.906 57.9375 98.9531 57.9375H97.1719L97.0781 55.3906C96.9844 52.5938 96.6875 50.9375 95.875 48.6406C92.9844 40.5156 85.8906 34.0625 78.0781 32.4688C76.2812 32.1094 73.3125 31.9531 71.75 32.1562ZM72.1562 53C73.5937 53.6406 76.4531 54.4844 78.6719 54.9219C80.5625 55.2969 81.1562 55.3438 84.0781 55.3594C85.8906 55.3594 87.875 55.2969 88.5 55.2344L89.6562 55.1094L89.5781 60.1562C89.5156 64.6719 89.4844 65.3438 89.1719 66.5C88.6406 68.6094 89.0781 68.4062 84.9531 68.4062H81.3906L81.2969 67.7031C81.1406 66.1875 80.6094 66.0156 76.2187 66.0938L72.875 66.1406L72.4219 66.6562L71.9687 67.1562V70.0625V72.9688L72.4219 73.4219L72.875 73.875H76.5781C78.8125 73.875 80.3906 73.8125 80.5781 73.7188C80.9844 73.4844 81.3437 72.75 81.3437 72.0781V71.5312H84.0781C85.5781 71.5312 86.8125 71.5938 86.8125 71.6562C86.8125 71.9375 85.7969 73.2031 84.75 74.2344C82.7812 76.1875 80.2344 77.5938 77.4375 78.2812C75.8594 78.6719 72.6094 78.75 71.1094 78.4375C65.3125 77.1875 60.8281 73.1719 59.1094 67.7031C58.5 65.75 58.375 64.375 58.375 59.3281V54.6562L58.7344 54.5938C58.9219 54.5469 59.9531 54.4375 61.0312 54.3438C63.3281 54.125 67.9531 53.375 69.625 52.9531C71.1719 52.5625 71.1719 52.5625 72.1562 53ZM50.875 64.7344V68.4062H49.3125H47.75V64.7344V61.0625H49.3125H50.875V64.7344ZM100.25 64.7344V68.4062H98.6875H97.125V64.7344V61.0625H98.6875H100.25V64.7344ZM78.2187 69.9688V70.75H76.6562H75.0937V69.9688V69.1875H76.6562H78.2187V69.9688Z" fill="#212864"/>
<path d="M62.5938 83.2499C55.2656 84.8124 49.7188 90.4218 48.2188 97.7655C47.9375 99.1562 47.9062 99.9062 47.9062 105.203V111.078L48.2812 111.453C48.7812 111.953 49.3594 112.078 49.9531 111.844C50.9531 111.422 50.9375 111.469 51.0469 104.656C51.125 98.8905 51.1562 98.4062 51.4844 97.3124C52 95.5312 53.2344 93.1562 54.375 91.7343C56.7656 88.7187 60.8906 86.4374 64.4531 86.1249L65.4844 86.0312L69.1094 92.3593C71.1094 95.828 72.8906 98.7968 73.0781 98.9687C73.2812 99.1562 73.625 99.2655 74.0312 99.2655C74.5312 99.2655 74.7344 99.1718 75.0781 98.7812C75.2969 98.5312 77.0625 95.5468 79 92.1718L82.5156 86.0468L83.5469 86.1249C84.125 86.1718 85.1875 86.3905 85.9375 86.6093C90.2031 87.8437 93.6719 90.828 95.5781 94.8749C96.8281 97.5624 96.8594 97.7343 96.9531 104.656C97.0625 111.469 97.0469 111.422 98.0469 111.844C98.6406 112.078 99.2188 111.953 99.7188 111.453L100.094 111.078V105.203C100.094 98.6874 99.9844 97.6249 99 94.9374C96.8125 88.9374 91.4219 84.3749 85.0938 83.1874C82.5938 82.703 81.0938 82.953 80.25 83.9687C80.0312 84.2343 78.5625 86.703 76.9688 89.4687C75.375 92.2343 74.0469 94.4999 74 94.4999C73.9531 94.4999 72.625 92.2343 71.0312 89.4687C69.4375 86.703 67.9688 84.2343 67.7656 83.9843C66.875 82.9218 65.2031 82.6874 62.5938 83.2499Z" fill="#212864"/>
<path d="M78.6094 100.578C78.0312 100.828 77.6719 101.375 77.6719 102.031C77.6719 102.547 77.7656 102.734 78.1875 103.109L78.6875 103.562H84.7812H90.875L91.375 103.109C92.0625 102.5 92.0937 101.578 91.4531 100.938L91.0312 100.516L84.9687 100.484C81.6406 100.469 78.7812 100.516 78.6094 100.578Z" fill="#212864"/>
<defs>
<filter id="filter0_d_410_10193" x="0" y="0" width="148" height="148" filterUnits="userSpaceOnUse" color-interpolation-filters="sRGB">
<feFlood flood-opacity="0" result="BackgroundImageFix"/>
<feColorMatrix in="SourceAlpha" type="matrix" values="0 0 0 0 0 0 0 0 0 0 0 0 0 0 0 0 0 0 127 0" result="hardAlpha"/>
<feOffset dy="2"/>
<feGaussianBlur stdDeviation="7"/>
<feComposite in2="hardAlpha" operator="out"/>
<feColorMatrix type="matrix" values="0 0 0 0 0 0 0 0 0 0 0 0 0 0 0 0 0 0 0.25 0"/>
<feBlend mode="normal" in2="BackgroundImageFix" result="effect1_dropShadow_410_10193"/>
<feBlend mode="normal" in="SourceGraphic" in2="effect1_dropShadow_410_10193" result="shape"/>
</filter>
</defs>
</svg>
