<svg width="1440" height="90" viewBox="0 0 1440 90" fill="none" xmlns="http://www.w3.org/2000/svg">
<g opacity="0.07" clip-path="url(#clip0_642_3813)">
<path d="M713.871 10.3588C714.773 10.7194 715.674 10.8997 716.575 10.8997C714.773 13.7845 714.953 17.0299 718.918 19.1935C719.279 19.3738 719.639 19.5541 720 19.7344C723.064 20.8162 725.948 19.9147 727.751 17.9314C728.832 20.4556 731.175 22.0783 734.961 21.3571C739.467 20.4556 740.008 16.8496 739.287 13.2436C740.188 13.4239 741.089 13.6042 742.171 13.4239C745.055 13.0633 747.398 10.7194 748.299 8.01489C749.381 5.31039 749.02 2.06498 746.857 -0.0986187C746.497 -0.459219 746.136 -0.639519 745.776 -1.00012H720H719.459C719.639 -1.00012 719.82 -0.81982 720 -0.81982C720.36 -0.639519 720.541 -0.639519 720.901 -0.459219C720.901 -0.459219 721.622 2.06498 721.802 2.24528C721.983 3.32708 721.262 4.22859 720 4.94979C718.378 6.03159 715.854 6.57249 714.412 5.85129C712.249 4.94979 711.708 0.442282 714.412 -1.18042H709.906C709.545 0.0816814 709.545 1.34378 709.545 2.60588C709.726 5.67099 710.987 8.91639 713.871 10.3588ZM736.222 1.34378C736.222 1.16348 742.531 1.16348 743.252 1.52408C745.235 2.42558 745.776 4.40889 745.235 6.39219C744.694 8.73609 742.892 9.99819 740.548 9.63759C739.827 9.45729 734.961 6.75279 735.321 6.21189C735.862 4.58919 736.222 2.96648 736.222 1.34378ZM730.815 9.63759C731.716 9.63759 732.617 9.27699 733.519 8.55579C735.321 10.8997 738.746 16.3087 734.42 17.9314C728.832 20.2753 730.454 9.63759 730.815 9.63759ZM720 8.91639C721.081 7.65429 722.343 6.57249 724.146 6.03159C724.506 6.39219 727.03 8.37549 727.57 8.73609C726.669 12.3421 726.128 18.292 720.721 16.3087C720.36 16.1284 720.18 15.9481 720 15.7678C717.657 14.5057 718.017 11.4406 720 8.91639Z" fill="#A38E97"/>
<path d="M631.858 38.1251C643.033 33.7979 646.818 41.1902 657.273 35.4206C655.29 37.7645 653.488 40.1084 652.767 43.5341C652.406 45.1568 654.569 46.7795 655.47 45.3371C659.256 39.0266 665.745 42.6326 670.071 35.06C668.989 37.5842 668.629 40.2887 669.35 43.5341C669.53 44.6159 671.693 45.6977 672.053 44.4356C675.118 35.6009 687.735 34.1585 689.898 25.6844C689.357 28.5692 689.718 31.454 691.701 34.3388C692.422 35.4206 694.224 34.8797 694.585 33.7979C695.666 30.0116 697.649 17.03 705.219 11.621C699.091 13.0634 694.945 17.5709 693.503 24.9632C693.683 20.636 694.945 17.03 698.19 14.1452C689.538 16.3088 680.886 21.3572 676.56 29.4707C678.723 24.0617 682.508 19.9148 687.194 16.4891C679.083 20.0951 669.169 24.9632 664.122 32.3555C667.187 26.2253 673.135 22.0784 678.542 18.2921C668.989 22.439 659.256 25.8647 649.342 29.1101C657.994 25.6844 666.646 22.2587 674.757 17.9315C668.989 18.4724 662.32 19.0133 656.732 17.2103C661.779 18.2921 680.886 15.9482 687.375 12.8831C682.328 12.7028 674.757 13.2437 670.431 9.99828C673.315 11.621 689.357 11.0801 693.683 10.7195C690.98 9.63768 688.276 8.37558 685.752 6.93318C685.752 6.93318 685.752 6.93318 685.572 6.93318C685.392 6.75288 685.212 6.75288 685.031 6.57258C689.357 8.19528 699.812 10.3589 708.464 8.55588C696.928 8.01498 690.439 0.262073 680.525 3.50748C679.263 3.86808 679.444 5.67108 680.345 6.39228C680.525 6.57258 680.525 6.57258 680.705 6.75288C675.118 3.86808 670.792 7.47408 664.122 7.11348C662.861 7.11348 662.861 9.27708 663.942 9.99828C665.204 10.8998 666.285 11.8013 667.367 12.7028C659.977 9.63768 654.93 15.7679 645.917 13.9649C644.115 13.6043 644.655 15.9482 645.737 17.2103C647.72 19.9148 651.685 20.0951 654.749 21.3572C643.394 20.9966 643.213 29.1101 631.137 35.2403C629.154 35.9615 630.235 38.8463 631.858 38.1251Z" fill="#A38E97"/>
<path d="M688.997 74.185C687.555 75.2668 689.718 76.3486 691.34 76.3486C694.585 76.5289 697.289 73.6441 700.173 72.2017C692.602 80.6758 698.731 86.0848 695.847 99.2467C695.486 100.869 698.37 101.771 698.911 99.9679C702.696 88.609 710.807 90.412 713.151 78.6925C713.691 81.7576 714.412 84.6424 716.395 87.3469C717.296 88.609 720 88.0681 719.459 86.4454C718.378 83.3803 719.099 81.0364 720 78.6925C721.082 75.988 722.524 73.1032 720.901 68.5957C722.163 70.9396 723.965 73.1032 726.849 74.5456C727.931 75.0865 729.914 74.185 729.373 73.1032C724.506 64.9897 731.536 54.5323 726.309 47.3203C728.111 49.6642 730.635 51.2869 734.059 51.4672C735.321 51.6475 736.042 50.0248 735.502 48.943C733.339 45.6976 724.506 35.7811 725.227 26.5857C722.343 32.1751 723.244 38.3053 727.931 44.2552C724.867 41.3704 722.884 38.125 722.704 33.7978C721.622 35.9614 720.721 38.4856 720 40.8295C718.378 46.5991 718.198 52.7293 720 58.3186C720.18 59.0398 720.36 59.5807 720.721 60.3019C720.541 59.761 720.361 59.4004 720 58.8595C717.837 54.1717 717.116 48.943 717.477 43.8946C714.953 52.3687 712.43 63.0064 714.953 71.6608C712.249 65.3503 712.79 58.1383 713.511 51.6475C710.447 61.7443 707.022 71.3002 703.057 81.0364C705.941 72.2017 708.824 63.367 710.807 54.352C707.382 59.0398 703.778 64.6291 698.731 67.8745C702.696 64.6291 713.151 48.4021 714.953 41.5507C711.528 45.337 707.022 51.4672 701.795 52.7293C704.859 51.6475 714.773 38.8462 717.116 35.4205C714.592 36.8629 711.889 38.125 709.185 39.2068C709.185 39.2068 709.185 39.2068 709.005 39.2068C708.824 39.2068 708.464 39.3871 708.284 39.3871C711.168 37.7644 715.854 34.1584 720 29.4705C721.803 27.3069 723.605 25.1433 724.867 22.6191C723.245 24.2418 721.622 25.6842 720 26.766C713.331 31.4538 706.301 33.0766 703.237 40.8295C702.696 42.0916 704.318 42.9931 705.219 42.8128C705.4 42.8128 705.58 42.8128 705.58 42.8128C699.812 45.337 699.812 50.9263 695.126 55.7944C694.224 56.6959 696.027 58.1383 697.108 57.7777C698.55 57.4171 699.992 57.0565 701.434 56.8762C694.585 60.4822 696.207 68.2351 688.997 74.185Z" fill="#A38E97"/>
<path d="M707.382 20.4555C707.382 21.8979 708.824 23.16 710.266 22.9797C711.889 22.7994 712.79 21.5373 712.79 20.0949V19.7343C712.79 18.2919 711.348 17.0298 709.906 17.2101C708.284 17.3904 707.382 18.6525 707.382 20.0949V20.4555Z" fill="#A38E97"/>
<path d="M619.781 52.5492C613.652 51.4674 607.524 49.3038 601.215 48.7629C595.267 48.4023 589.319 50.5659 583.911 52.3689C581.928 53.0901 582.109 56.1552 584.091 56.5158C591.301 57.7779 597.43 63.5475 605 63.1869C616.897 62.646 626.811 57.4173 639.068 58.6794H639.248C650.063 60.843 661.058 60.843 671.332 57.7779C599.773 100.87 565.345 51.828 554.891 33.0767C553.629 30.5525 551.827 31.2737 553.088 33.6176C561.56 48.9432 571.113 64.6293 585.714 73.8246C573.096 70.7595 541.192 57.9582 531.639 53.9916C539.209 61.0233 562.822 70.2186 572.555 74.0049C558.856 73.1034 545.338 73.464 531.639 79.5942C529.115 80.676 530.197 81.3972 532.9 80.8563C556.153 75.8079 569.131 77.07 581.207 78.1518C568.59 83.2002 545.878 88.9698 551.286 104.295C551.827 105.738 553.99 106.459 554.891 105.017C560.298 96.903 568.41 99.6075 575.8 95.6409C583.731 91.494 584.812 81.9381 593.464 78.873C594.366 78.873 595.087 78.873 595.988 78.873C613.472 79.5942 628.974 80.8563 645.917 75.0867C639.608 80.3154 634.021 86.2653 630.956 93.1167C629.334 96.903 628.613 101.23 626.811 104.656C621.583 103.754 616.176 100.87 611.129 101.951C603.558 103.574 598.331 108.082 593.645 114.032C592.203 115.835 593.825 117.998 595.988 117.457C603.018 115.654 611.67 116.736 618.88 115.113C615.635 117.097 612.751 119.441 610.588 123.047C604.82 131.881 608.966 144.322 612.391 153.157C613.112 155.14 615.996 155.14 616.536 152.976C618.519 143.961 629.154 144.502 633.3 137.471C636.544 131.701 634.561 126.653 633.119 121.244C639.789 126.833 651.325 125.931 659.977 122.686C662.14 121.784 661.779 119.08 659.796 118.539C648.26 114.933 648.801 96.3621 634.381 104.115C633.48 104.656 632.579 104.836 631.677 105.017C633.84 99.9681 634.742 94.3788 637.806 89.691C643.754 80.676 655.11 73.2837 664.122 67.5141C664.303 67.3338 664.303 67.3338 664.483 67.1535C665.925 66.252 667.367 65.5308 668.809 64.6293C665.925 68.4156 663.582 72.3822 662.5 77.2503C660.698 85.1835 668.088 92.3955 669.169 99.9681C669.35 101.951 672.234 102.853 673.315 100.689C680.525 85.7244 682.328 70.2186 682.868 53.631C682.868 53.631 682.868 53.631 682.868 53.4507C684.31 51.828 682.147 49.6644 680.165 50.3856C679.624 50.2053 679.083 50.2053 678.362 50.5659C664.843 57.4173 648.981 56.1552 634.381 52.3689C628.613 48.7629 629.154 39.7478 625.909 34.1585C622.304 27.848 613.833 27.1268 607.884 24.4223C605.541 23.3405 603.919 26.2253 605.541 28.0283C609.687 32.5358 610.949 38.8463 614.554 43.8947C615.094 44.7962 615.815 45.5174 616.536 46.4189C606.082 41.9114 596.889 35.2403 588.958 27.3071C581.748 19.3739 587.877 12.1619 593.104 11.8013C595.267 11.621 597.25 13.6043 598.872 14.6861C600.134 15.5876 602.297 15.5876 603.739 15.5876C607.884 15.5876 610.949 16.8497 614.554 18.6527C617.077 19.9148 616.717 17.5709 616.356 14.6861C615.996 9.81801 611.85 8.01501 609.507 6.57261C610.768 5.85141 612.03 4.94991 613.112 3.6878C614.193 2.2454 615.094 0.803002 615.815 -0.8197H610.768C608.966 2.606 606.082 4.94991 597.43 3.1469C597.971 1.7045 598.331 0.262101 598.872 -0.8197H590.22C590.22 0.622702 589.859 2.2454 588.778 3.6878C583.551 11.0801 581.748 15.9482 581.568 19.1936C580.847 18.4724 580.126 17.5709 579.585 16.6694C575.259 11.2604 571.834 5.31051 569.131 -1H564.624C567.148 5.13021 570.392 11.0801 574.178 16.6694C584.452 31.2737 601.035 44.6159 619.781 52.5492ZM625.369 138.913C621.223 141.617 617.257 143.42 614.734 147.026C612.21 139.814 611.309 132.783 614.554 125.21C616.717 120.342 623.206 117.638 628.072 114.933C628.793 123.587 635.102 132.422 625.369 138.913Z" fill="#A38E97"/>
<path d="M488.919 93.4772C489.46 97.0832 491.984 99.0665 495.048 99.4271C493.786 101.771 493.786 104.475 496.49 106.819C499.735 109.704 502.799 108.081 505.142 105.377C505.502 106.098 505.863 107 506.584 107.541C508.567 109.524 511.631 109.884 514.154 109.163C516.678 108.442 519.021 106.278 519.382 103.574C519.382 103.033 519.382 102.492 519.382 101.951C521.365 102.132 523.528 101.591 525.33 99.2468C526.952 97.2635 527.313 94.559 526.231 92.2151C525.69 91.1333 524.969 90.2318 524.068 89.6909C525.15 89.15 525.871 88.4287 526.592 87.5272C528.034 85.1833 527.313 81.9379 525.871 79.7743C524.248 77.6107 521.905 75.8077 519.021 75.8077C517.94 75.8077 517.039 75.988 516.318 76.5289C516.137 73.8244 514.695 71.3002 511.271 70.7593C507.305 70.0381 505.322 72.2017 504.601 74.9062C504.421 74.9062 504.241 74.7259 504.241 74.7259C501.537 73.6441 498.292 75.2668 496.31 77.0698C494.147 78.8728 492.344 81.7576 492.885 84.6424C493.065 85.5439 493.426 86.2651 493.967 86.9863C490.542 87.3469 488.198 89.15 488.919 93.4772ZM513.253 106.278C511.27 107.18 509.288 106.639 508.206 104.656C507.846 104.115 507.125 98.8862 507.846 98.7059C509.288 98.3453 510.73 97.6241 511.992 96.7226C512.172 96.5423 515.597 101.41 515.777 102.132C516.318 103.935 515.056 105.377 513.253 106.278ZM522.807 97.2635C521.365 99.4271 517.579 100.689 514.335 94.1984C515.236 93.1166 515.957 91.8545 516.318 90.4121C520.463 90.4121 525.691 93.2969 522.807 97.2635ZM517.219 79.9546C519.562 78.5122 521.725 79.594 523.167 81.5773C524.429 83.2 524.969 85.1833 523.167 86.4454C521.545 87.7076 516.678 87.7076 516.498 88.0682C516.318 87.8879 516.318 87.7075 516.318 87.5272C515.957 86.2651 514.695 85.1833 513.614 84.6424C513.614 84.6424 516.498 80.3152 517.219 79.9546ZM510.009 73.8244C516.858 73.8244 510.189 83.2 511.271 83.5606C510.91 83.3803 508.747 82.8394 507.846 82.8394C506.043 76.8895 507.305 73.8244 510.009 73.8244ZM498.473 104.475C493.606 101.591 502.619 96.9029 502.799 97.0832C503.34 97.8044 504.06 98.165 505.142 98.5256C504.421 101.23 502.258 106.819 498.473 104.475ZM504.782 83.9212C504.782 83.9212 503.34 85.9045 503.159 86.0848C501.537 87.8878 496.85 85.0031 496.129 82.6591C495.408 79.4137 502.799 74.5456 504.782 83.9212ZM501.717 90.0515C501.717 90.5924 501.537 93.4772 501.537 94.1984C498.292 95.6408 493.426 98.5256 491.984 93.2969C490.722 88.9697 497.031 86.806 501.717 90.0515Z" fill="#A38E97"/>
<path d="M506.404 32.1751C506.223 32.1751 506.043 31.9948 505.863 31.9948C503.159 30.913 499.915 32.5357 497.932 34.3387C495.769 36.1417 493.966 39.0265 494.507 41.9113C494.687 42.8128 495.048 43.534 495.589 44.2552C492.524 44.4355 490.001 46.4188 490.722 50.746C491.263 54.352 493.786 56.3353 496.67 56.6959C495.408 59.0398 495.408 61.7443 498.112 64.0882C501.357 66.973 504.421 65.3503 506.764 62.6458C507.125 63.367 507.485 64.2685 508.206 64.9897C510.189 66.973 513.253 67.3336 515.777 66.6124C518.3 65.8912 520.643 63.7276 521.004 61.0231C521.004 60.4822 521.004 59.9413 521.004 59.4004C522.987 59.5807 525.15 59.0398 526.952 56.6959C528.574 54.7126 528.935 52.0081 527.853 49.6642C527.313 48.5824 526.592 47.6809 525.69 47.14C526.592 46.5991 527.493 45.8779 528.214 44.9764C529.656 42.6325 528.935 39.3871 527.493 37.2235C525.871 35.0599 523.347 33.2569 520.643 33.2569C519.562 33.2569 518.661 33.4372 517.94 33.9781C517.759 31.2736 516.317 28.7494 512.893 28.2085C509.107 27.307 507.125 29.4706 506.404 32.1751ZM506.764 41.0098C506.764 41.0098 505.322 42.9931 505.142 43.1734C503.52 45.1567 498.653 42.0916 498.112 39.7477C497.391 36.5023 504.781 31.6342 506.764 41.0098ZM493.966 50.5657C492.705 46.0582 499.013 44.0749 503.7 47.3203C503.52 47.8612 503.52 50.746 503.52 51.4672C500.275 52.9096 495.589 55.7944 493.966 50.5657ZM500.455 61.7443C495.589 58.8595 504.601 54.1717 504.781 54.352C505.322 55.0732 506.043 55.4338 507.125 55.7944C506.404 58.4989 504.241 63.9079 500.455 61.7443ZM515.416 63.367C513.433 64.2685 511.451 63.7276 510.369 61.564C510.009 61.0231 509.288 55.7944 510.009 55.6141C511.451 55.2535 512.893 54.5323 514.154 53.6308C514.335 53.4505 517.759 58.3186 517.94 59.0398C518.3 61.0231 517.219 62.6458 515.416 63.367ZM524.969 54.5323C523.527 56.6959 519.742 57.958 516.498 51.4672C517.399 50.3854 518.12 49.1233 518.48 47.6809C522.446 47.5006 527.673 50.3854 524.969 54.5323ZM519.201 37.0432C521.545 35.6008 523.708 36.6826 525.15 38.6659C526.411 40.2886 526.952 42.2719 525.15 43.534C523.527 44.7961 518.661 44.7961 518.48 45.1567C518.3 44.9764 518.3 44.7961 518.3 44.6158C517.94 43.3537 516.678 42.2719 515.596 41.731C515.596 41.731 518.661 37.4038 519.201 37.0432ZM511.991 31.0933C518.841 31.0933 512.172 40.4689 513.253 40.8295C512.893 40.6492 510.73 40.1083 509.828 40.1083C508.026 34.1584 509.468 31.0933 511.991 31.0933Z" fill="#A38E97"/>
<path d="M518.841 11.08C516.858 12.883 516.137 15.4072 518.12 18.4723C520.463 22.0783 523.888 21.5374 526.772 19.7344C526.772 20.6359 527.132 21.3571 527.493 22.2586C528.755 24.7828 531.639 26.0449 534.342 26.0449C537.046 26.0449 539.93 24.7828 541.012 22.2586C541.192 21.7177 541.372 21.3571 541.552 20.8162C543.355 21.7177 545.698 21.5374 548.041 20.095C550.204 18.8329 551.286 16.1284 551.106 13.7845C550.925 12.7027 550.565 11.6209 549.844 10.7194C550.925 10.5391 552.007 10.1785 552.908 9.27699C555.071 7.47398 555.251 4.22858 554.35 1.52408C553.99 0.622577 553.629 -0.0986235 553.088 -0.819824H548.222C549.664 -0.459224 550.745 0.802877 551.286 2.42558C552.007 4.40888 551.827 6.39218 549.844 7.11338C547.861 7.83459 543.355 6.57248 542.994 6.57248C542.994 6.39218 542.994 6.21188 542.994 6.03158C542.994 4.58918 542.093 3.32708 541.192 2.42558C541.192 2.42558 544.977 -0.459224 545.878 -0.819824H540.291C539.57 0.0816767 539.029 0.622577 539.389 0.802877C539.029 0.622577 537.226 -0.459224 536.505 -0.819824H533.081C533.081 -0.819824 533.081 -0.819824 533.081 -0.639524C533.081 -0.639524 531.098 0.802877 530.918 0.983178C529.836 1.70438 528.034 0.622577 526.772 -0.819824H518.12C516.498 -0.278924 515.416 1.16348 514.875 3.86798C514.335 7.29368 516.137 9.81789 518.841 11.08ZM542.093 8.73609C546.059 9.81789 550.024 14.1451 546.239 17.2102C544.256 18.8329 540.11 18.8329 539.029 11.8012C540.471 11.08 541.552 9.99819 542.093 8.73609ZM531.639 13.9648C533.081 14.1451 534.703 13.7845 536.145 13.2436C536.325 13.2436 538.308 18.8329 538.308 19.5541C538.128 21.5374 536.505 22.7995 534.523 22.9798C532.36 23.1601 530.557 22.0783 530.197 19.9147C530.197 19.1935 530.918 13.9648 531.639 13.9648ZM520.824 17.0299C517.038 12.7027 526.952 10.8997 527.132 11.2603C527.493 11.9815 528.034 12.7027 528.935 13.2436C527.493 15.5875 523.708 20.2753 520.824 17.0299ZM528.214 4.04828C528.034 4.58918 526.952 7.29368 526.952 8.01488C523.347 8.37549 517.94 9.81789 517.94 4.40888C517.94 -0.278923 524.609 -0.459224 528.214 4.04828Z" fill="#A38E97"/>
<path d="M475.941 15.5876C473.959 17.3906 473.238 20.0951 475.22 22.9799C477.564 26.5859 480.988 26.045 483.872 24.0617C483.872 24.9632 484.233 25.8647 484.593 26.5859C485.855 29.1101 488.739 30.1919 491.443 30.3722C494.147 30.3722 497.031 29.1101 498.112 26.5859C498.292 26.045 498.473 25.6844 498.653 25.1435C500.455 26.045 502.799 25.8647 505.142 24.4223C507.305 23.1602 508.386 20.4557 508.206 18.1118C508.026 17.03 507.665 15.9482 506.944 15.0467C508.026 14.8664 509.107 14.5058 510.009 13.6043C512.172 11.8013 512.352 8.55591 511.451 5.85141C510.549 3.3272 508.747 0.803002 506.043 0.0818011C505.142 -0.278799 504.06 -0.278799 503.159 -0.0984991C503.159 -0.459099 503.159 -0.6394 503.339 -1H500.095C499.194 1.7045 495.769 4.76961 496.31 5.13021C495.949 4.94991 493.966 3.6878 493.426 3.3272C493.426 1.5242 493.606 0.0818011 493.966 -1H489.64C490.181 0.0818011 490.361 1.5242 490.181 3.5075C490.181 3.5075 488.198 4.94991 488.018 5.13021C486.035 6.57261 482.25 2.2454 482.43 -0.0984991C482.43 -0.459099 482.611 -0.6394 482.611 -1H478.825C478.645 -0.459099 478.465 0.0818009 478.285 0.622702C478.104 1.5242 478.285 2.4257 478.645 3.1469C475.581 2.4257 472.697 3.5075 472.156 8.01501C471.435 11.621 473.238 14.3255 475.941 15.5876ZM502.979 3.3272C505.502 2.606 507.305 4.2287 508.206 6.57261C508.927 8.55591 508.747 10.5392 506.764 11.2604C504.781 11.9816 500.275 10.7195 499.915 10.8998C499.915 10.7195 499.915 10.5392 499.915 10.1786C499.915 8.73621 499.013 7.47411 498.112 6.57261C498.292 6.75291 502.258 3.5075 502.979 3.3272ZM499.194 13.2437C503.159 14.3255 507.125 18.6527 503.339 21.7178C501.357 23.3405 497.211 23.3405 496.129 16.3088C497.391 15.4073 498.473 14.5058 499.194 13.2437ZM488.739 18.4724C490.181 18.6527 491.803 18.2921 493.245 17.7512C493.426 17.7512 495.408 23.3405 495.408 24.0617C495.228 26.045 493.606 27.3071 491.623 27.4874C489.46 27.6677 487.658 26.5859 487.297 24.4223C487.117 23.5208 488.018 18.2921 488.739 18.4724ZM477.924 21.3572C474.139 17.03 484.053 15.227 484.233 15.5876C484.593 16.3088 485.134 17.03 486.035 17.5709C484.413 19.9148 480.808 24.6026 477.924 21.3572ZM485.134 8.55591C484.954 9.09681 483.872 11.8013 483.872 12.5225C480.267 12.8831 474.86 14.3255 474.86 8.91651C475.04 4.22871 481.709 4.04841 485.134 8.55591Z" fill="#A38E97"/>
<path d="M455.573 77.2503C457.917 80.8563 461.341 80.3154 464.225 78.5124C464.225 79.4139 464.586 80.3154 464.946 81.0366C466.208 83.5608 469.092 84.6426 471.796 84.8229C474.499 84.8229 477.384 83.5608 478.465 81.0366C478.645 80.4957 478.825 80.1351 479.006 79.5942C480.808 80.4957 483.151 80.3154 485.495 78.873C487.658 77.6109 488.739 74.9064 488.559 72.5625C488.379 71.4807 488.018 70.3989 487.297 69.4974C488.379 69.3171 489.46 68.9565 490.362 68.055C492.525 66.252 492.705 63.0066 491.803 60.4824C490.902 57.9582 489.1 55.434 486.396 54.7128C485.495 54.3522 484.413 54.3521 483.512 54.5325C484.233 51.8279 483.512 49.1234 480.268 47.5007C476.663 45.6977 474.139 47.1401 472.697 49.484C472.517 49.3037 472.517 49.3037 472.337 49.1234C469.993 47.3204 466.569 47.8613 464.045 48.9431C461.522 50.0249 458.998 52.1886 458.638 55.2537C458.457 56.1552 458.638 57.0567 458.998 57.7779C455.934 57.0567 453.05 58.1385 452.509 62.646C451.968 66.252 453.771 68.9565 456.475 70.0383C454.492 71.661 453.771 74.1852 455.573 77.2503ZM458.277 75.6276C454.492 71.3004 464.405 69.4974 464.586 69.858C464.946 70.5792 465.487 71.3004 466.388 71.8413C464.946 74.1852 461.341 78.873 458.277 75.6276ZM483.873 75.9882C481.89 77.6109 477.744 77.6109 476.663 70.5792C477.924 69.858 479.006 68.7762 479.727 67.5141C483.512 68.5959 487.658 72.7428 483.873 75.9882ZM483.332 57.5976C486.036 56.8764 487.838 58.4991 488.559 60.843C489.28 62.8263 489.1 64.8096 487.117 65.5308C485.134 66.252 480.628 64.9899 480.268 64.9899C480.268 64.8096 480.268 64.6293 480.268 64.449C480.268 63.0066 479.366 61.7445 478.465 60.843C478.645 61.0233 482.791 57.7779 483.332 57.5976ZM478.465 49.6643C484.954 51.6476 475.942 58.6794 476.843 59.4006C476.482 59.2203 474.5 57.9582 473.959 57.5976C473.598 51.4673 475.942 48.9431 478.465 49.6643ZM473.778 71.8413C473.959 71.8413 475.942 77.4306 475.942 78.1518C475.761 80.1351 474.139 81.3972 472.156 81.5775C469.993 81.7578 468.191 80.676 467.83 78.5124C467.65 77.7912 468.551 72.5625 469.272 72.7428C470.714 72.7428 472.156 72.3822 473.778 71.8413ZM470.354 57.7779C470.354 57.7779 468.371 59.2203 468.191 59.4006C466.208 60.843 462.423 56.5158 462.603 53.9916C462.783 50.7461 471.255 48.2219 470.354 57.7779ZM455.393 63.0066C455.393 58.3188 462.062 58.1385 465.667 62.646C465.487 63.1869 464.406 65.8914 464.406 66.6126C460.801 67.1535 455.393 68.5959 455.393 63.0066Z" fill="#A38E97"/>
<path d="M430.879 24.4223C430.338 28.0283 432.141 30.7328 434.845 31.8146C432.862 33.6176 432.141 36.3221 434.123 39.2069C436.467 42.8129 439.891 42.272 442.775 40.2887C442.775 41.1902 443.136 42.0917 443.497 42.8129C444.758 45.3372 447.642 46.4189 450.346 46.5993C453.05 46.5993 455.934 45.3372 457.015 42.8129C457.196 42.272 457.376 41.9114 457.556 41.3705C459.358 42.272 461.702 42.0917 464.045 40.6493C466.208 39.3872 467.29 36.6827 466.929 34.3388C466.749 33.257 466.388 32.1752 465.667 31.2737C466.749 31.0934 467.83 30.7328 468.732 29.8313C470.895 28.0283 471.075 24.7829 470.354 22.2587C469.453 19.7345 467.65 17.2103 464.946 16.4891C464.045 16.1285 462.963 16.1285 462.062 16.3088C462.783 13.6043 462.062 10.8998 458.818 9.27711C455.213 7.47411 452.689 8.91651 451.247 11.2604C451.067 11.0801 451.067 11.0801 450.887 10.8998C448.543 9.09681 445.119 9.63771 442.595 10.7195C439.892 11.8013 437.548 13.9649 437.188 17.03C437.008 17.9315 437.188 18.833 437.548 19.5542C434.484 19.0133 431.6 20.0951 430.879 24.4223ZM436.827 37.7645C433.042 33.4373 442.956 31.6343 443.136 31.9949C443.496 32.7161 444.037 33.4373 444.938 33.9782C443.496 36.3221 439.891 41.0099 436.827 37.7645ZM462.423 38.1251C460.44 39.7478 456.294 39.9281 455.213 32.7161C456.475 31.9949 457.556 30.9131 458.277 29.651C462.062 30.7328 466.208 34.8797 462.423 38.1251ZM462.062 19.7345C464.766 19.0133 466.568 20.636 467.289 22.9799C468.01 24.9632 467.83 26.9465 465.848 27.6677C463.865 28.3889 459.358 27.1268 458.998 27.1268C458.998 26.9465 458.998 26.7662 458.998 26.5859C458.998 25.1435 458.097 23.8814 457.195 22.9799C457.195 23.1602 461.341 19.9148 462.062 19.7345ZM457.015 11.8013C463.504 13.7846 454.492 20.8163 455.393 21.5375C455.032 21.3572 453.05 20.0951 452.509 19.7345C452.329 13.6043 454.492 11.0801 457.015 11.8013ZM452.329 33.9782C452.509 33.9782 454.492 39.5675 454.492 40.2887C454.311 42.272 452.689 43.5341 450.707 43.7144C448.544 43.8947 446.741 42.813 446.38 40.6493C446.2 39.9281 447.102 34.6994 447.823 34.8797C449.265 34.8797 450.887 34.5191 452.329 33.9782ZM448.904 19.9148C448.904 19.9148 446.921 21.3572 446.741 21.5375C444.758 22.9799 440.973 18.6527 441.153 16.1285C441.334 12.8831 449.805 10.3589 448.904 19.9148ZM444.218 24.9632C444.037 25.5041 442.956 28.2086 442.956 28.9298C439.351 29.2904 433.943 30.7328 433.943 25.3238C434.124 20.636 440.613 20.4557 444.218 24.9632Z" fill="#A38E97"/>
<path d="M630.055 2.96648C630.055 -2.62282 621.403 -2.08192 621.403 3.50739C621.583 9.09669 630.055 8.55579 630.055 2.96648Z" fill="#A38E97"/>
<path d="M475.581 92.0347C475.581 97.624 484.233 97.0831 484.233 91.4938C484.233 85.9045 475.581 86.4454 475.581 92.0347Z" fill="#A38E97"/>
<path d="M438.81 58.3187C438.81 63.908 447.462 63.3671 447.462 57.7778C447.462 52.1885 438.81 52.7294 438.81 58.3187Z" fill="#A38E97"/>
<path d="M479.186 36.1418C479.186 30.5525 470.534 31.0934 470.534 36.6827C470.534 42.272 479.186 41.7311 479.186 36.1418Z" fill="#A38E97"/>
<path d="M491.443 37.5842C491.443 31.9949 482.791 32.5358 482.791 38.1251C482.791 43.7144 491.443 43.1735 491.443 37.5842Z" fill="#A38E97"/>
<path d="M541.012 33.257V32.5358C541.012 26.9465 532.36 27.4874 532.36 33.0767V33.7979C532.36 39.3872 541.012 38.8463 541.012 33.257Z" fill="#A38E97"/>
<path d="M563.182 20.9965C563.182 15.4072 554.531 15.9481 554.531 21.5374C554.711 27.1267 563.182 26.5858 563.182 20.9965Z" fill="#A38E97"/>
<path d="M468.371 2.96648C468.371 -2.62282 459.719 -2.08192 459.719 3.50739C459.719 9.09669 468.371 8.55579 468.371 2.96648Z" fill="#A38E97"/>
<path d="M452.509 0.0818011C452.509 -0.278799 452.329 -0.6394 452.329 -1H444.217C444.037 -0.459099 443.857 0.0818009 443.857 0.622702C443.857 6.21201 452.509 5.67111 452.509 0.0818011Z" fill="#A38E97"/>
<path d="M436.647 5.13006C436.647 -0.459247 427.995 0.0816536 427.995 5.67096C428.175 11.2603 436.647 10.7194 436.647 5.13006Z" fill="#A38E97"/>
<path d="M422.768 12.7026H422.047C416.459 12.7026 417 21.357 422.587 21.357H423.308C428.896 21.357 428.355 12.7026 422.768 12.7026Z" fill="#A38E97"/>
<path d="M434.484 44.0749C434.484 38.4856 425.832 39.0265 425.832 44.6158C426.012 50.2051 434.484 49.6642 434.484 44.0749Z" fill="#A38E97"/>
<path d="M428.356 -1H422.047C422.948 -0.0984991 424.21 0.442402 425.472 0.442402C426.733 0.262101 427.635 -0.278799 428.356 -1Z" fill="#A38E97"/>
<path d="M414.657 9.09679H415.378C420.965 9.09679 420.425 0.442383 414.837 0.442383H414.116C408.528 0.442383 409.249 9.09679 414.657 9.09679Z" fill="#A38E97"/>
<path d="M260.903 11.4407C261.805 11.8013 262.526 11.9816 263.427 11.9816C261.805 14.6861 261.805 17.7512 265.77 19.7345C269.015 21.5375 272.079 20.636 274.242 18.4724C275.323 20.8163 277.486 22.439 280.911 21.7178C285.057 20.8163 285.778 17.3906 284.877 13.9649C285.778 14.1452 286.679 14.3255 287.58 14.1452C290.284 13.7846 292.447 11.621 293.348 9.09681C294.25 6.57261 294.069 3.5075 291.906 1.5242C291.546 1.1636 291.185 0.803002 290.645 0.622702C291.005 0.0818011 291.366 -0.459099 291.726 -1H287.941C286.679 -0.0984991 284.696 0.262101 281.632 -0.278799C281.632 -0.459099 281.452 -0.8197 281.452 -1H257.839C257.118 0.622702 256.758 2.606 256.938 4.22871C256.938 7.11351 258.2 10.1786 260.903 11.4407ZM281.993 2.9666C281.993 2.7863 287.941 2.7863 288.662 3.1469C290.464 4.04841 291.005 5.85141 290.645 7.83471C290.104 9.99831 288.482 11.2604 286.319 10.8998C285.778 10.7195 281.091 8.19531 281.272 7.65441C281.812 6.03171 281.993 4.58931 281.993 2.9666ZM276.946 10.7195C277.847 10.7195 278.568 10.3589 279.469 9.63771C281.272 11.8013 284.336 16.8497 280.19 18.4724C274.963 20.8163 276.585 10.7195 276.946 10.7195ZM273.881 9.99831C272.98 13.424 272.439 19.0133 267.392 17.2103C263.066 15.5876 265.049 9.27711 270.637 7.47411C270.997 7.83471 273.341 9.63771 273.881 9.99831ZM267.573 1.3439C267.573 1.3439 268.294 3.68781 268.474 3.8681C269.015 6.21201 263.787 8.37561 261.624 7.29381C258.38 6.03171 258.921 -2.803 267.573 1.3439Z" fill="#A38E97"/>
<path d="M216.742 20.8162C217.463 21.5374 218.184 21.898 219.085 22.0783C216.742 24.0616 215.841 27.1267 218.905 30.1918C221.428 32.716 224.673 32.8963 227.377 31.4539C227.737 33.9781 229.359 36.1417 232.964 36.5023C237.29 36.8629 238.913 33.7978 239.093 30.3721C239.814 30.913 240.715 31.2736 241.616 31.2736C244.32 31.8145 247.024 30.1918 248.646 28.0282C250.268 25.8646 250.989 22.7995 249.547 20.4556C249.367 19.9147 249.007 19.5541 248.646 19.1935C250.449 18.292 251.71 16.489 251.891 13.6042C252.071 11.08 250.629 8.73609 248.646 7.47398C247.565 6.93308 246.483 6.57248 245.402 6.57248C245.942 5.67098 246.303 4.58918 246.123 3.32708C245.942 1.52408 245.041 0.261977 243.599 -0.819824H232.243C231.883 -0.459224 231.522 0.0816767 231.162 0.622577C230.801 0.0816767 230.261 -0.459224 229.72 -0.819824H223.231C220.167 0.983178 219.806 3.68768 220.707 6.21188C220.527 6.21188 220.347 6.21188 220.167 6.39218C217.283 7.11338 215.66 10.3588 215.12 12.883C214.218 15.4072 214.579 18.8329 216.742 20.8162ZM221.248 28.2085C217.643 25.3237 221.428 19.9147 227.196 19.7344C227.377 20.2753 228.999 22.6192 229.54 23.1601C227.737 26.4055 225.574 31.4539 221.248 28.2085ZM246.123 26.0449C245.041 28.0282 243.058 28.5691 241.076 27.6676C240.535 27.307 236.75 23.5207 237.29 22.9798C238.192 21.898 238.913 20.4556 239.453 19.0132C239.453 18.8329 245.221 20.6359 245.762 21.1768C247.204 22.4389 247.024 24.4222 246.123 26.0449ZM248.646 13.2436C248.826 15.9481 246.303 19.1935 239.994 15.7678C240.174 14.3254 239.994 12.883 239.273 11.6209C242.518 9.09669 248.466 8.37549 248.646 13.2436ZM233.685 2.60588C234.767 0.0816768 237.11 -0.278924 239.453 0.442277C241.436 0.983178 242.878 2.24528 242.337 4.40888C241.797 6.39218 238.011 9.27699 237.831 9.63759C237.651 9.45729 237.471 9.45729 237.29 9.27699C236.209 8.55579 234.767 8.37549 233.325 8.55579C233.685 8.37549 233.505 3.14678 233.685 2.60588ZM232.243 24.9631C233.145 25.1434 234.046 25.1434 234.947 24.7828C236.029 27.307 237.471 33.0766 233.145 33.4372C227.377 33.7978 231.883 24.7828 232.243 24.9631ZM224.312 1.88468C229.72 -2.26223 230.08 9.45729 230.982 9.09669C230.621 9.27699 228.458 9.99819 227.737 10.3588C223.051 6.57248 222.33 3.32708 224.312 1.88468ZM226.115 13.0633C226.115 13.0633 226.115 15.5875 226.115 15.7678C225.935 18.292 220.347 18.6526 218.544 17.0299C215.841 14.8663 218.905 6.57248 226.115 13.0633Z" fill="#A38E97"/>
<path d="M175.825 16.489C173.482 18.4723 172.581 21.5374 175.645 24.6025C178.168 27.1267 181.413 27.307 184.117 25.8646C184.477 28.3888 186.099 30.5524 189.705 30.913C194.031 31.2736 195.653 28.2085 195.833 24.7828C196.554 25.3237 197.455 25.504 198.356 25.6843C201.06 26.2252 203.764 24.6025 205.386 22.4389C207.008 20.2753 207.729 17.2102 206.287 14.8663C206.107 14.3254 205.747 13.9648 205.386 13.6042C207.189 12.7027 208.45 10.8997 208.631 8.01489C208.811 5.49069 207.369 3.14678 205.386 1.88468C204.305 1.34378 203.223 0.983182 202.142 0.983182C202.502 0.442282 202.682 -0.278919 202.682 -1.00012H199.077C198.176 0.983182 194.751 3.50738 194.751 3.86799C194.571 3.68769 194.391 3.68769 194.211 3.50738C193.129 2.78618 191.687 2.60588 190.245 2.78618C190.245 2.78618 190.245 0.622582 190.245 -1.00012H186.46C187.181 1.16348 187.542 3.50738 187.902 3.32708C187.542 3.50738 185.378 4.22859 184.657 4.58919C181.773 2.42558 180.331 0.442282 180.151 -1.18042H176.907C176.907 -0.639519 177.087 -0.0986187 177.267 0.261982C177.087 0.261982 176.907 0.261982 176.726 0.442282C173.842 1.16348 172.22 4.40889 171.679 6.93309C170.958 9.63759 171.319 13.0633 173.482 15.0466C174.203 15.9481 174.924 16.3087 175.825 16.489ZM205.386 7.65429C205.566 10.3588 203.043 13.6042 196.734 10.1785C196.914 8.73609 196.734 7.29369 196.013 6.03159C199.438 3.32708 205.206 2.78618 205.386 7.65429ZM194.03 17.3905C194.932 16.3087 195.653 14.8663 196.193 13.4239C196.193 13.2436 201.961 15.0466 202.502 15.5875C204.124 17.0299 203.944 18.8329 202.863 20.6359C201.781 22.6192 199.799 23.1601 197.816 22.2586C197.275 21.7177 193.67 17.9314 194.03 17.3905ZM189.164 19.3738C190.065 19.5541 190.966 19.5541 191.867 19.1935C192.949 21.7177 194.391 27.4873 190.065 27.8479C184.297 28.2085 188.803 19.1935 189.164 19.3738ZM186.46 17.7511C184.657 20.8162 182.494 26.0449 178.168 22.6192C174.563 19.7344 178.349 14.3254 184.117 14.1451C184.297 14.686 185.919 17.2102 186.46 17.7511ZM182.855 7.47399C182.855 7.47399 182.855 9.99819 182.855 10.1785C182.675 12.7027 177.087 13.0633 175.284 11.4406C172.761 9.27699 175.825 0.983182 182.855 7.47399Z" fill="#A38E97"/>
<path d="M165.551 -1H159.242C160.864 0.622702 163.748 0.622702 165.551 -1Z" fill="#A38E97"/>
<path d="M216.201 -1H207.91C208.45 3.6878 215.12 3.3272 216.201 -1Z" fill="#A38E97"/>
<path d="M285.958 42.6325C283.615 41.731 281.812 44.4355 283.615 46.2385C287.58 50.0248 284.876 53.4505 286.138 57.7777C286.859 60.4822 287.941 62.1049 289.923 64.0882C292.267 66.6124 296.232 68.4155 298.936 70.3988C305.064 74.726 305.425 78.332 305.966 91.3136C304.343 101.41 304.524 111.868 305.425 122.325C301.279 112.048 294.61 102.312 286.138 99.4271C283.615 98.5256 281.632 102.492 284.336 103.394C291.906 105.918 297.674 114.753 301.459 123.948C294.97 119.26 285.597 119.621 278.027 118.719C275.323 118.359 274.422 122.145 277.126 122.866C282.173 124.309 285.597 130.799 290.104 133.504C296.232 137.29 305.425 138.011 308.669 149.19C310.472 162.532 313.176 178.218 322.909 187.594C328.677 193.183 331.922 185.07 330.299 182.906C329.939 182.365 329.578 181.824 329.218 181.283C324.351 163.434 331.922 128.095 353.912 128.095C356.616 128.095 356.616 127.193 353.912 127.193C333.364 127.193 323.27 150.452 323.45 170.285C314.077 148.108 315.879 121.784 330.299 103.935C336.788 97.2635 343.638 106.278 349.766 108.442C355.715 110.606 361.483 108.081 367.251 112.048C368.873 113.13 371.396 111.868 370.675 109.704C366.349 97.0832 353.552 91.6742 341.295 93.8378C344.9 91.4939 348.685 89.3303 353.011 87.7076C364.547 83.3804 375.722 82.6592 386.718 84.2819C383.293 93.1166 396.271 101.41 400.777 92.3954C403.661 96.0014 406.906 99.968 405.103 106.459C404.022 110.425 400.417 114.212 399.335 118.178C398.073 122.866 399.155 127.374 397.172 132.242C396.451 134.225 398.434 136.028 400.236 134.946C412.313 128.275 412.133 116.736 409.79 105.016C408.708 99.4271 407.627 93.4772 405.464 90.5924C406.906 91.3136 408.528 91.8545 409.97 92.756C418.622 97.2635 419.703 106.098 420.965 114.572C422.407 123.768 428.355 130.619 433.583 138.011C434.664 139.454 437.548 139.273 437.548 137.29C437.548 120.522 427.815 113.491 422.768 101.771C421.686 99.4271 418.802 95.4605 417.54 93.6575C422.227 96.1817 430.338 98.8862 433.583 104.115C439.891 115.474 446.921 118.719 456.294 122.506C458.637 123.407 459.178 119.26 458.457 118.359C447.822 103.754 427.815 94.1984 411.412 87.347C418.982 87.1667 425.471 88.4288 433.402 92.0348C442.235 96.0014 452.329 95.6408 461.161 99.2468C463.144 100.148 464.946 97.9847 463.865 96.1817C457.556 84.4622 442.956 83.741 431.059 83.741C430.158 83.741 415.017 82.8395 407.446 83.2001C420.064 72.923 436.286 83.2001 443.136 72.3821C444.037 70.9397 442.595 69.3169 440.973 69.3169C433.402 69.3169 424.75 68.2351 417.721 71.6609C412.493 74.3654 407.807 77.9714 402.76 80.6759C402.76 80.4956 402.76 80.135 402.58 79.9547C405.103 73.1033 418.622 65.17 417.54 42.8128C417.54 41.0098 414.476 40.8295 413.575 42.6325C410.691 48.5824 405.824 49.6642 406.365 57.0565C406.906 65.1701 403.841 70.2185 400.056 75.4472C400.056 70.3988 387.258 70.579 387.078 80.6759C373.92 78.6926 360.401 79.7744 346.342 85.544C345.26 85.9046 344.359 86.6258 343.277 86.9864C346.522 82.4789 350.127 78.332 353.912 74.0048C358.058 69.3169 360.581 64.9897 357.878 58.8595C356.976 57.0565 354.994 56.8762 353.912 58.6792C349.586 65.7109 340.754 66.6124 336.608 73.4639C332.462 80.135 335.887 90.4121 330.48 96.0014C309.751 115.654 308.129 149.911 320.566 175.874C312.635 165.417 311.553 147.748 310.472 136.208C308.85 120.342 307.227 104.295 309.931 88.4288C314.437 73.6442 336.248 29.8312 356.436 39.2068C358.058 39.928 358.779 41.9113 360.221 42.6325C364.367 44.9764 370.135 45.337 373.019 49.1233C374.1 50.3854 376.804 50.3854 376.984 48.4021C377.705 39.2068 370.856 31.9948 362.564 29.6509C368.873 27.6676 375.362 26.2252 382.031 25.504C395.009 37.9447 407.266 28.9297 413.214 28.7494C414.656 28.7494 415.918 26.5858 414.837 25.3237C406.004 15.2269 391.945 9.09669 382.392 21.1768C372.658 22.4389 364.006 25.1434 354.273 28.5691C361.663 19.7344 367.431 9.81789 372.117 -0.819824H369.594C364.907 9.63759 358.238 18.4723 350.307 26.7661C351.028 25.1434 351.749 23.5207 352.29 21.898C354.633 12.7027 349.947 5.49068 343.638 -0.819824H339.492C339.312 -0.459224 339.312 -0.278924 339.312 0.0816767C339.312 7.11338 336.248 12.883 334.265 19.5541C332.102 26.5858 334.986 37.4038 329.939 43.7143C320.205 52.549 313.356 63.908 309.03 76.3487C307.047 61.2034 302.541 48.943 285.958 42.6325Z" fill="#A38E97"/>
<path d="M137.973 102.673C135.449 103.033 135.269 106.279 137.612 107C140.857 107.901 153.114 113.671 165.551 112.95C168.074 112.769 173.121 108.082 176.546 89.6909C176.907 87.8879 174.203 87.347 172.761 88.4288C162.847 95.2802 165.731 97.9847 162.306 102.853C164.289 92.5757 157.98 90.2318 153.835 84.2819C152.573 82.2986 148.968 83.9213 150.049 86.0849C152.393 91.8545 146.444 95.4605 154.195 103.033C144.462 97.9847 141.938 102.132 137.973 102.673Z" fill="#A38E97"/>
<path d="M251.71 85.544C251.891 88.4288 253.152 91.4939 255.676 92.756C256.577 93.1166 257.298 93.2969 258.199 93.2969C256.577 96.0014 256.577 99.0665 260.543 101.05C263.787 102.853 266.851 101.951 269.014 99.7877C270.096 102.132 272.259 103.754 275.684 103.033C279.829 102.132 280.55 98.7059 279.649 95.2802C280.55 95.4605 281.452 95.6408 282.353 95.4605C285.057 95.0999 287.22 92.9363 288.121 90.4121C289.022 87.8879 288.842 84.8228 286.679 82.8395C286.318 82.4789 285.958 82.1183 285.417 81.938C286.859 80.4956 287.58 78.332 286.859 75.6275C286.318 73.1032 284.336 71.3002 281.812 70.579C280.731 70.3987 279.469 70.3987 278.387 70.7593C278.568 69.6775 278.568 68.5957 278.207 67.3336C277.126 64.6291 274.242 63.367 271.538 63.367C268.834 63.1867 265.95 64.2685 264.328 66.4321C263.787 67.1533 263.427 68.0548 263.246 68.9563C260.903 67.3336 258.199 67.1533 255.496 69.4972C252.612 72.2017 252.972 75.0866 254.775 77.4305C254.594 77.4305 254.414 77.6108 254.414 77.6108C252.251 79.2335 251.53 82.8395 251.71 85.544ZM262.345 98.5256C258.019 96.9029 260.002 90.5924 265.59 88.7894C265.95 89.15 268.293 91.1333 268.834 91.4939C267.933 94.7393 267.572 100.329 262.345 98.5256ZM275.143 99.968C269.916 102.132 271.538 92.0348 271.898 92.0348C272.8 92.0348 273.701 91.6742 274.422 90.953C276.044 93.2969 279.289 98.3453 275.143 99.968ZM285.417 89.15C284.876 91.3136 283.254 92.5757 281.091 92.2151C280.55 92.0348 275.864 89.5106 276.044 88.9697C276.585 87.5273 276.945 86.0849 276.945 84.4622C276.945 84.2819 282.894 84.2819 283.615 84.6425C285.417 85.3637 285.958 87.1667 285.417 89.15ZM284.155 76.1684C285.057 78.6926 283.795 82.4789 276.585 81.0365C276.224 79.5941 275.684 78.332 274.782 77.2502C277.126 73.8245 282.533 71.4805 284.155 76.1684ZM271.718 66.4321C273.701 66.4321 275.684 67.1533 275.684 69.4972C275.684 71.4805 272.98 75.4471 272.98 75.8077C272.8 75.8077 272.619 75.6275 272.439 75.6275C271.177 75.2669 269.735 75.4472 268.474 75.9881C268.654 75.9881 266.851 70.9396 267.032 70.2184C267.032 67.5139 269.195 66.4321 271.718 66.4321ZM257.478 72.382C261.444 66.973 265.049 77.7911 265.95 77.2502C265.59 77.4305 263.787 78.8729 263.246 79.4138C257.659 77.4305 256.036 74.3654 257.478 72.382ZM262.525 82.4789C262.525 82.4789 263.246 84.8228 263.427 85.0031C263.967 87.347 258.74 89.5106 256.577 88.4288C253.333 87.347 253.873 78.5123 262.525 82.4789Z" fill="#A38E97"/>
<path d="M194.211 70.0382C193.31 71.4806 194.752 73.1033 196.194 73.1033C202.863 73.1033 208.09 77.7911 214.579 77.9714C221.429 78.1517 223.411 71.3003 229.54 71.12C233.686 70.9397 237.291 72.3821 240.896 73.8245C232.063 75.4472 224.132 80.4956 221.969 89.8712C221.609 91.1333 222.871 92.5757 224.132 92.3954C229.36 91.6742 234.046 92.5757 238.552 89.3303C243.059 86.2652 243.599 80.3153 249.548 78.6926C250.99 78.332 251.17 76.8896 250.809 75.8078C244.681 64.8095 252.432 62.8262 249.367 57.0566C247.024 52.5491 240.535 51.1067 236.389 49.484C234.587 48.7628 232.244 50.7461 233.686 52.5491C236.93 56.696 230.081 60.302 237.651 68.0549C234.407 67.1534 231.162 66.6125 227.918 66.0716C218.364 55.6142 201.421 58.1384 194.211 70.0382Z" fill="#A38E97"/>
<path d="M276.044 31.0932C276.044 25.5039 267.392 26.0448 267.392 31.6341C267.392 37.2234 276.044 36.6825 276.044 31.0932Z" fill="#A38E97"/>
<path d="M294.249 34.3387H294.97C300.558 34.3387 300.017 25.6843 294.43 25.6843H293.709C288.301 25.6843 288.842 34.3387 294.249 34.3387Z" fill="#A38E97"/>
<path d="M307.768 13.9648C307.768 8.37547 299.116 8.91637 299.116 14.5057C299.116 19.9147 307.768 19.3738 307.768 13.9648Z" fill="#A38E97"/>
<path d="M263.246 45.337C263.246 50.9263 271.898 50.3854 271.898 44.7961C271.718 39.2068 263.246 39.7477 263.246 45.337Z" fill="#A38E97"/>
<path d="M6.75075 17.9315C7.83225 20.4557 10.1755 22.0784 13.9608 21.3572C18.467 20.4557 19.0077 16.8497 18.2867 13.2437C19.188 13.424 20.0893 13.6043 21.1707 13.424C24.0548 13.0634 26.398 10.7195 27.2992 8.01501C28.3808 5.31051 28.0203 2.0651 25.8573 -0.0984991C25.4967 -0.459099 25.1362 -0.6394 24.7758 -1H-1V-0.8197C-0.6395 -0.6394 -0.45925 -0.6394 -0.09875 -0.459099C-0.09875 -0.459099 0.62225 2.0651 0.8025 2.2454C0.98275 3.3272 0.26175 4.40901 -1 5.13021V9.09681C0.0815001 7.83471 1.34325 6.75291 3.14575 6.21201C3.50625 6.57261 6.02975 8.55591 6.5705 8.91651C5.66925 12.5225 5.1285 18.4724 -0.279 16.4891C-0.45925 16.3088 -0.81975 16.1285 -1 15.9482V19.7345C2.06425 20.8163 4.94825 19.9148 6.75075 17.9315ZM15.2225 1.3439C15.2225 1.1636 21.5312 1.1636 22.2522 1.5242C24.235 2.4257 24.7757 4.40901 24.235 6.57261C23.6943 8.91651 21.8917 10.1786 19.5485 9.81801C19.0077 9.45741 13.9607 6.75291 14.3212 6.21201C14.862 4.58931 15.2225 2.9666 15.2225 1.3439ZM9.815 9.63771C10.7163 9.63771 11.6175 9.27711 12.5188 8.55591C14.3212 10.8998 17.746 16.3088 13.42 17.9315C7.83225 20.2754 9.4545 9.63771 9.815 9.63771Z" fill="#A38E97"/>
<path d="M-1 26.5859V29.2904C0.8025 27.1268 2.605 24.9632 3.86675 22.439C2.2445 24.242 0.62225 25.5041 -1 26.5859Z" fill="#A38E97"/>
<path d="M-0.0987978 68.7761C1.16295 71.12 2.96545 73.2836 5.84945 74.726C6.93095 75.2669 8.9137 74.3654 8.37295 73.2836C3.5062 65.1701 10.536 54.7126 5.3087 47.5006C7.1112 49.8445 9.6347 51.4672 13.0595 51.6475C14.3212 51.8278 15.0422 50.2051 14.5015 49.1233C12.1582 45.8779 3.32595 36.1417 4.04695 26.7661C1.16295 32.3554 2.0642 38.4856 6.7507 44.4355C3.68645 41.5507 1.7037 38.3053 1.52345 33.9781C0.441952 36.1417 -0.459298 38.6659 -1.1803 41.0098V58.4989C-1.00005 59.2201 -0.819798 59.761 -0.459298 60.4822C-0.639548 59.9413 -0.819798 59.5807 -1.1803 59.0398V79.0532C0.0814521 76.1684 1.52345 73.2836 -0.0987978 68.7761Z" fill="#A38E97"/>
<path d="M65.5123 47.5006C66.5938 46.9597 66.9543 44.6158 65.5123 44.6158C56.1393 44.6158 50.912 33.0766 42.0798 33.6175C44.9638 33.2569 47.6675 31.9948 49.6503 29.11C50.3713 28.0282 49.47 26.5858 48.2083 26.5858C44.2428 26.7661 31.2648 29.11 23.8745 23.5207C27.119 28.9297 32.7068 31.4539 40.2773 30.5524C36.1315 31.6342 32.3463 31.6342 28.561 29.4706C33.4278 37.0432 40.818 43.7143 50.0108 45.1567C44.2428 44.9764 39.0155 42.6325 34.329 39.2068C40.2773 45.8779 48.028 53.6308 56.68 55.9747C50.0108 54.8929 44.0625 50.746 38.8353 46.5991C45.6848 54.352 52.1738 62.4655 58.3023 70.9396C52.354 63.7276 46.4058 56.6959 39.7365 50.2051C42.0798 55.6141 44.7835 61.564 44.7835 67.5139C44.2428 62.4655 35.9513 44.9764 30.9043 39.7477C32.3463 44.6158 35.2303 51.6475 33.608 56.8762C34.329 53.6308 28.7413 38.6659 26.9388 34.6993C26.7585 37.7644 26.398 40.6492 25.8573 43.534C25.8573 43.534 25.8573 43.534 25.8573 43.7143C25.8573 43.8946 25.677 44.2552 25.677 44.4355C25.8573 39.7477 24.5955 29.2903 20.2695 21.5374C23.3338 32.5357 18.1065 41.1901 24.4153 49.4839C25.3165 50.5657 26.7585 49.8445 27.119 48.7627C27.119 48.5824 27.2993 48.5824 27.2993 48.4021C26.398 54.7126 31.0845 57.5974 32.887 64.0882C33.2475 65.3503 35.2303 64.6291 35.5908 63.367C35.9513 61.9246 36.492 60.6625 37.0328 59.2201C36.492 67.1533 43.8823 70.0381 44.9638 79.2334C45.144 81.0364 47.1268 79.7743 48.028 78.5122C49.8305 75.8077 48.9293 72.0214 49.1095 68.776C52.354 79.594 60.1048 77.2501 69.658 86.806C70.7395 87.8878 73.0828 85.9045 72.0013 84.6424C64.2505 75.4471 70.1988 69.4972 61.5468 61.3837C64.4308 62.4655 67.3148 63.367 70.5593 63.1867C72.1815 63.0064 73.0828 60.4822 71.4605 60.1216C64.2505 58.4989 65.6925 51.2869 57.2208 49.4839C59.9245 49.4839 62.6283 49.1233 65.5123 47.5006Z" fill="#A38E97"/>
<path d="M77.4087 -1H62.0874C59.0232 0.622702 55.9589 1.7045 52.5342 2.4257C60.4652 2.606 70.0184 2.4257 77.4087 -1Z" fill="#A38E97"/>
<path d="M53.075 17.03C54.517 17.2103 54.8775 15.5876 54.517 14.5058C54.517 14.3255 54.3368 14.3255 54.3368 14.1452C58.3023 19.0133 63.5295 17.7512 69.4777 20.8163C70.5592 21.3572 71.4605 19.3739 70.9198 18.2921C70.1988 17.03 69.658 15.7679 68.937 14.3255C74.3445 20.2754 81.3743 16.8497 88.9448 22.2587C90.3868 23.3405 90.9275 20.9966 90.567 19.5542C89.846 16.3088 86.4212 14.5058 84.2582 11.9816C94.3522 17.03 97.9573 9.81801 111.476 9.27711C113.098 9.27711 113.279 6.21201 111.476 6.03171C103.004 5.49081 100.481 1.1636 95.4338 -1H78.31C73.263 2.2454 66.9543 3.3272 61.1863 4.40901C71.6408 4.76961 81.915 5.67111 92.1892 6.93321C82.8162 6.39231 73.4433 5.85141 64.2505 6.21201C69.658 8.19531 75.9667 10.3589 80.2927 14.5058C76.147 11.4407 57.7615 5.49081 50.7318 5.49081C55.238 7.83471 62.448 10.5392 64.9715 15.227C63.169 12.5225 48.3885 6.21201 44.2428 4.76961C46.4058 6.93321 48.2083 9.09681 49.8305 11.621C49.8305 11.621 49.8305 11.621 49.8305 11.8013C50.0108 11.9816 50.0108 12.1619 50.191 12.3422C46.9465 8.91651 38.2945 2.7863 29.8228 0.622702C40.097 6.03171 42.8008 15.7679 53.075 17.03Z" fill="#A38E97"/>
<path d="M60.1047 -1H43.8822C43.1612 -0.6394 42.4402 -0.278799 41.5389 -0.098499C47.6674 1.1636 54.1564 0.983302 60.1047 -1Z" fill="#A38E97"/>
<path d="M9.27417 28.569C9.27417 32.175 14.6817 31.8144 14.6817 28.2084C14.6817 24.6024 9.27417 24.963 9.27417 28.569Z" fill="#A38E97"/>
<path d="M32.1659 18.1116H32.3462C33.7882 18.1116 35.0499 16.6692 34.8697 15.2268C34.8697 13.6041 33.4277 12.7026 31.9857 12.7026H31.6252C30.1832 12.7026 28.9214 14.145 29.1017 15.5874C29.2819 17.2101 30.7239 18.1116 32.1659 18.1116Z" fill="#A38E97"/>
<path d="M89.3052 146.305C83.1767 160.368 84.799 168.482 87.1422 175.694C61.3665 179.661 70.379 192.462 61.5467 203.1C60.4652 204.362 62.8084 206.165 64.0702 204.903C69.2974 200.034 81.3742 199.313 84.799 190.298C81.7347 204.181 94.7127 213.557 107.15 222.572C108.231 223.293 110.034 223.293 110.575 221.851C113.278 213.918 113.999 205.624 109.854 198.051C107.691 194.265 105.708 190.839 102.644 187.774C102.463 187.594 102.283 187.594 102.103 187.413C112.738 188.856 123.012 185.07 127.879 173.35C128.419 171.908 127.518 170.105 125.716 170.285C118.866 170.646 112.377 172.449 105.528 169.383C103.004 168.302 99.0387 169.203 94.3522 173.711C86.6015 167.941 96.3349 138.913 100.12 130.979C100.3 131.52 99.0387 152.255 107.691 155.14C109.854 155.861 111.476 156.943 111.836 154.959C112.918 149.37 114.36 145.043 113.278 139.454C112.197 133.864 104.266 129.176 106.068 119.08C117.965 94.018 117.424 68.235 101.202 46.7793C119.227 47.1399 119.407 55.2534 126.076 58.4988C133.466 62.1048 141.938 61.5639 149.148 65.7108C150.951 66.6123 152.573 64.8093 152.212 63.0063C149.148 51.2868 137.612 47.1399 126.256 45.5172C131.484 44.0748 136.35 42.0915 143.921 38.6658C143.921 38.6658 143.921 38.4855 144.101 38.4855C150.77 38.6658 157.44 39.387 162.306 34.1583C166.092 30.1917 166.092 23.5206 168.795 18.8328C169.697 17.3904 168.255 15.7677 166.632 15.7677C161.045 15.7677 154.556 15.0465 150.049 19.3737C145.543 23.7009 143.741 29.4705 141.037 34.8795C136.891 37.2234 132.385 39.2067 127.879 40.6491C143.02 29.1099 133.647 16.4889 129.681 9.27687C128.78 7.83447 126.256 8.01477 125.716 9.63748C123.192 16.6692 115.622 18.2919 115.622 26.5857C115.622 30.1917 117.965 33.6174 117.424 37.2234C115.081 51.1065 80.6532 34.6992 68.7567 24.2418C67.4949 22.7994 65.3319 27.6675 67.4949 28.7493C101.021 46.7793 102.644 84.8227 79.2112 103.033C68.7567 104.115 65.5122 92.9362 58.1219 90.0514C51.2724 87.5272 42.981 88.0681 36.3117 90.412C34.329 91.1332 34.5092 94.018 36.492 94.5589C44.6032 96.3619 49.4699 104.656 56.8602 108.442C60.2849 110.065 64.6109 110.425 68.937 109.704C59.0232 114.392 47.8477 114.933 36.8525 112.589C33.9685 110.786 32.166 106.278 30.1832 104.115C20.4497 93.8377 8.01245 94.5589 -1.00005 96.5422V103.213C5.6692 106.278 10.3557 114.572 16.4842 118.178C23.8745 122.325 32.3462 118.719 40.4575 118.719C51.8132 118.539 74.7049 114.933 88.2237 100.148C102.824 84.2817 104.987 62.6457 94.893 45.6975C115.081 66.6123 110.575 101.23 96.6954 127.373C89.4855 133.323 80.2927 124.849 72.0012 125.931C64.6109 127.013 58.4825 132.422 53.075 137.11C51.2725 138.552 52.5342 141.798 54.8775 140.896C64.0702 137.47 72.0012 145.404 81.0137 142.519C84.0779 141.617 86.7817 140.175 89.4855 138.732C70.7394 160.368 62.8085 160.188 56.3195 160.729C51.9935 160.729 47.6674 160.008 43.702 158.385C38.2945 156.041 35.4105 149.731 31.8055 145.404C27.2992 139.634 20.63 137.651 13.42 137.11C11.0767 136.929 9.81495 139.814 11.978 141.076C21.351 146.485 12.8792 154.599 31.9857 161.27C21.7115 163.253 10.8965 160.368 0.0814523 156.762C-0.459298 156.582 -0.819798 156.582 -1.1803 156.582V158.926C15.0422 166.499 30.9042 168.843 59.0232 165.056C40.8179 174.432 20.0892 176.956 -1.00005 178.579V195.527C5.6692 189.216 12.699 183.267 38.2945 178.038C51.8132 175.333 75.6062 163.434 89.3052 146.305ZM90.7472 185.971C91.4682 186.512 92.5497 186.873 93.8114 187.413C105.528 191.921 110.214 205.804 107.51 217.343C95.7942 209.23 83.7175 200.395 90.7472 185.971Z" fill="#A38E97"/>
<path d="M179.43 35.4206C179.43 29.8313 170.778 30.3722 170.778 35.9615C170.778 41.5508 179.43 41.0099 179.43 35.4206Z" fill="#A38E97"/>
<path d="M186.64 40.2886C186.64 45.8779 195.292 45.337 195.292 39.7477C195.292 34.1584 186.64 34.6993 186.64 40.2886Z" fill="#A38E97"/>
<path d="M185.919 52.7294C185.919 47.1401 177.267 47.681 177.267 53.2703C177.267 58.8596 185.919 58.1384 185.919 52.7294Z" fill="#A38E97"/>
<path d="M208.991 33.257C208.991 27.6677 200.339 28.2086 200.339 33.7979C200.339 39.3872 208.991 38.8463 208.991 33.257Z" fill="#A38E97"/>
<path d="M223.952 39.7477C223.952 34.1584 215.3 34.6993 215.3 40.2886C215.48 45.8779 223.952 45.337 223.952 39.7477Z" fill="#A38E97"/>
<path d="M262.886 24.6025C262.886 19.0132 254.234 19.5541 254.234 25.1434C254.234 30.7327 262.886 30.1918 262.886 24.6025Z" fill="#A38E97"/>
<path d="M247.745 38.8463C247.745 44.4356 256.397 43.8947 256.397 38.3054C256.397 32.716 247.745 33.2569 247.745 38.8463Z" fill="#A38E97"/>
<path d="M150.771 1.5242C150.771 0.442402 150.41 -0.459099 149.689 -1H143.38C142.659 -0.278799 142.119 0.803002 142.119 2.0651C142.119 7.65441 150.771 7.11351 150.771 1.5242Z" fill="#A38E97"/>
<path d="M165.01 46.9598C165.01 43.8947 162.667 42.272 159.783 42.272C157.44 42.272 155.637 44.6159 155.817 46.7795C155.817 48.0416 156.538 49.1234 157.259 49.6643C159.242 52.5491 165.19 51.4673 165.01 46.9598Z" fill="#A38E97"/>
<path d="M208.27 46.9596C208.27 41.3703 199.618 41.9112 199.618 47.5005C199.618 53.0899 208.27 52.3687 208.27 46.9596Z" fill="#A38E97"/>
<path d="M1435.41 6.03171C1433.25 5.13021 1432.71 0.622702 1435.41 -1H1430.91C1430.55 0.262101 1430.55 1.5242 1430.55 2.7863C1430.73 5.85141 1431.99 9.09681 1434.87 10.5392C1435.77 10.8998 1436.67 11.0801 1437.58 11.0801C1435.77 13.9649 1435.95 17.2103 1439.92 19.3739C1440.28 19.5542 1440.64 19.7345 1441 19.9148V15.9482C1438.66 14.5058 1439.02 11.4407 1441 8.91651V5.13021C1439.38 6.03171 1436.85 6.57261 1435.41 6.03171Z" fill="#A38E97"/>
<path d="M1352.86 38.1251C1364.03 33.7979 1367.82 41.1902 1378.27 35.4206C1376.29 37.7645 1374.49 40.1084 1373.77 43.5341C1373.41 45.1568 1375.57 46.7795 1376.47 45.3371C1380.26 39.0266 1386.74 42.6326 1391.07 35.06C1389.99 37.5842 1389.63 40.2887 1390.35 43.5341C1390.53 44.6159 1392.69 45.6977 1393.05 44.4356C1396.12 35.6009 1408.74 34.1585 1410.9 25.6844C1410.36 28.5692 1410.72 31.454 1412.7 34.3388C1413.42 35.4206 1415.22 34.8797 1415.58 33.7979C1416.67 30.0116 1418.65 17.03 1426.22 11.621C1420.09 13.0634 1415.95 17.5709 1414.5 24.9632C1414.68 20.636 1415.95 17.03 1419.19 14.1452C1410.54 16.3088 1401.89 21.3572 1397.56 29.4707C1399.72 24.0617 1403.51 19.9148 1408.19 16.4891C1400.08 20.0951 1390.17 24.9632 1385.12 32.3555C1388.19 26.2253 1394.13 22.0784 1399.54 18.2921C1389.99 22.439 1380.26 25.8647 1370.34 29.1101C1378.99 25.6844 1387.65 22.2587 1395.76 17.9315C1389.99 18.4724 1383.32 19.0133 1377.73 17.2103C1382.78 18.2921 1401.89 15.9482 1408.37 12.8831C1403.33 12.7028 1395.76 13.2437 1391.43 9.99828C1394.32 11.621 1410.36 11.0801 1414.68 10.7195C1411.98 9.63768 1409.28 8.37558 1406.75 6.93318C1406.75 6.93318 1406.75 6.93318 1406.57 6.93318C1406.39 6.75288 1406.21 6.75288 1406.03 6.57258C1410.36 8.19528 1420.81 10.3589 1429.46 8.55588C1417.93 8.01498 1411.44 0.262073 1401.53 3.50748C1400.26 3.86808 1400.44 5.67108 1401.34 6.39228C1401.53 6.57258 1401.53 6.57258 1401.71 6.75288C1396.12 3.86808 1391.79 7.47408 1385.12 7.11348C1383.86 7.11348 1383.86 9.27708 1384.94 9.99828C1386.2 10.8998 1387.29 11.8013 1388.37 12.7028C1380.98 9.63768 1375.93 15.7679 1366.92 13.9649C1365.11 13.6043 1365.66 15.9482 1366.74 17.2103C1368.72 19.9148 1372.69 20.0951 1375.75 21.3572C1364.39 20.9966 1364.21 29.1101 1352.14 35.2403C1350.15 35.9615 1351.24 38.8463 1352.86 38.1251Z" fill="#A38E97"/>
<path d="M1441 58.4989V41.0098C1439.38 46.7794 1439.2 52.9096 1441 58.4989Z" fill="#A38E97"/>
<path d="M1424.24 40.8295C1423.7 42.0916 1425.32 42.9931 1426.22 42.8128C1426.4 42.8128 1426.58 42.8128 1426.58 42.8128C1420.81 45.337 1420.81 50.9263 1416.13 55.7944C1415.22 56.6959 1417.03 58.1383 1418.11 57.7777C1419.55 57.4171 1420.99 57.0565 1422.43 56.8762C1415.4 60.4823 1416.85 68.2352 1409.64 74.1851C1408.19 75.2669 1410.36 76.3487 1411.98 76.3487C1415.22 76.529 1417.93 73.6442 1420.81 72.2018C1413.24 80.6759 1419.37 86.0849 1416.49 99.2468C1416.13 100.869 1419.01 101.771 1419.55 99.968C1423.34 88.6091 1431.45 90.4121 1433.79 78.6926C1434.33 81.7577 1435.05 84.6425 1437.03 87.347C1437.94 88.6091 1440.64 88.0682 1440.1 86.4455C1439.02 83.3804 1439.74 81.0365 1440.64 78.6926V58.8596C1438.48 54.1717 1437.76 48.943 1438.12 43.8946C1435.59 52.3687 1433.07 63.0065 1435.59 71.6609C1432.89 65.3504 1433.43 58.1383 1434.15 51.6475C1431.09 61.7444 1427.66 71.3003 1423.7 81.0365C1426.58 72.2018 1429.46 63.3671 1431.45 54.352C1428.02 59.0399 1424.42 64.6292 1419.37 67.8746C1423.34 64.6292 1433.79 48.4021 1435.59 41.5507C1432.17 45.337 1427.66 51.4672 1422.43 52.7293C1425.5 51.6475 1435.41 38.8462 1437.76 35.4205C1435.23 36.8629 1432.53 38.125 1429.82 39.2068C1429.82 39.2068 1429.82 39.2068 1429.64 39.2068C1429.46 39.2068 1429.1 39.3871 1428.92 39.3871C1431.81 37.7644 1436.49 34.1584 1440.64 29.4706V26.7661C1434.33 31.2736 1427.3 33.0766 1424.24 40.8295Z" fill="#A38E97"/>
<path d="M1428.38 20.4555C1428.38 21.8979 1429.82 23.16 1431.27 22.9797C1432.89 22.7994 1433.79 21.5373 1433.79 20.0949V19.7343C1433.79 18.2919 1432.35 17.0298 1430.91 17.2101C1429.28 17.3904 1428.38 18.6525 1428.38 20.0949V20.4555Z" fill="#A38E97"/>
<path d="M1340.78 52.5492C1334.65 51.4674 1328.52 49.3038 1322.22 48.7629C1316.27 48.4023 1310.32 50.5659 1304.91 52.3689C1302.93 53.0901 1303.11 56.1552 1305.09 56.5158C1312.3 57.7779 1318.43 63.5475 1326 63.1869C1337.9 62.646 1347.81 57.4173 1360.07 58.6794H1360.25C1371.06 60.843 1382.06 60.843 1392.33 57.7779C1320.77 100.87 1286.35 51.828 1275.89 33.0767C1274.63 30.5525 1272.83 31.2737 1274.09 33.6176C1282.56 48.9432 1292.11 64.6293 1306.71 73.8246C1294.1 70.7595 1262.19 57.9582 1252.64 53.9916C1260.21 61.0233 1283.82 70.2186 1293.56 74.0049C1279.86 73.1034 1266.34 73.464 1252.64 79.5942C1250.12 80.676 1251.2 81.3972 1253.9 80.8563C1277.15 75.8079 1290.13 77.07 1302.21 78.1518C1289.59 83.2002 1266.88 88.9698 1272.29 104.295C1272.83 105.738 1274.99 106.459 1275.89 105.017C1281.3 96.903 1289.41 99.6075 1296.8 95.6409C1304.73 91.494 1305.81 81.9381 1314.46 78.873C1315.37 78.873 1316.09 78.873 1316.99 78.873C1334.47 79.5942 1349.97 80.8563 1366.92 75.0867C1360.61 80.3154 1355.02 86.2653 1351.96 93.1167C1350.33 96.903 1349.61 101.23 1347.81 104.656C1342.58 103.754 1337.18 100.87 1332.13 101.951C1324.56 103.574 1319.33 108.082 1314.64 114.032C1313.2 115.835 1314.83 117.998 1316.99 117.457C1324.02 115.654 1332.67 116.736 1339.88 115.113C1336.64 117.097 1333.75 119.441 1331.59 123.047C1325.82 131.881 1329.97 144.322 1333.39 153.157C1334.11 155.14 1337 155.14 1337.54 152.976C1339.52 143.961 1350.15 144.502 1354.3 137.471C1357.54 131.701 1355.56 126.653 1354.12 121.244C1360.79 126.833 1372.32 125.931 1380.98 122.686C1383.14 121.784 1382.78 119.08 1380.8 118.539C1369.26 114.933 1369.8 96.3621 1355.38 104.115C1354.48 104.656 1353.58 104.836 1352.68 105.017C1354.84 99.9681 1355.74 94.3788 1358.81 89.691C1364.75 80.676 1376.11 73.2837 1385.12 67.5141C1385.3 67.3338 1385.3 67.3338 1385.48 67.1535C1386.93 66.252 1388.37 65.5308 1389.81 64.6293C1386.93 68.4156 1384.58 72.3822 1383.5 77.2503C1381.7 85.1835 1389.09 92.3955 1390.17 99.9681C1390.35 101.951 1393.23 102.853 1394.32 100.689C1401.53 85.7244 1403.33 70.2186 1403.87 53.631C1403.87 53.631 1403.87 53.631 1403.87 53.4507C1405.31 51.828 1403.15 49.6644 1401.16 50.3856C1400.62 50.2053 1400.08 50.2053 1399.36 50.5659C1385.84 57.4173 1369.98 56.1552 1355.38 52.3689C1349.61 48.7629 1350.15 39.7478 1346.91 34.1585C1343.3 27.848 1334.83 27.1268 1328.88 24.4223C1326.54 23.3405 1324.92 26.2253 1326.54 28.0283C1330.69 32.5358 1331.95 38.8463 1335.55 43.8947C1336.09 44.7962 1336.82 45.5174 1337.54 46.4189C1327.08 41.9114 1317.89 35.2403 1309.96 27.3071C1302.75 19.3739 1308.88 12.1619 1314.1 11.8013C1316.27 11.621 1318.25 13.6043 1319.87 14.6861C1321.13 15.5876 1323.3 15.5876 1324.74 15.5876C1328.88 15.5876 1331.95 16.8497 1335.55 18.6527C1338.08 19.9148 1337.72 17.5709 1337.36 14.6861C1337 9.81801 1332.85 8.01501 1330.51 6.57261C1331.77 5.85141 1333.03 4.94991 1334.11 3.6878C1335.19 2.2454 1336.09 0.803002 1336.82 -0.8197H1331.77C1329.97 2.606 1327.08 4.94991 1318.43 3.1469C1318.97 1.7045 1319.33 0.262101 1319.87 -0.8197H1311.22C1311.22 0.622702 1310.86 2.2454 1309.78 3.6878C1304.55 11.0801 1302.75 15.9482 1302.57 19.1936C1301.85 18.4724 1301.13 17.5709 1300.59 16.6694C1296.26 11.2604 1292.83 5.31051 1290.13 -1H1285.62C1288.15 5.13021 1291.39 11.0801 1295.18 16.6694C1305.45 31.2737 1322.04 44.6159 1340.78 52.5492ZM1346.37 138.913C1342.22 141.617 1338.26 143.42 1335.73 147.026C1333.21 139.814 1332.31 132.783 1335.55 125.21C1337.72 120.342 1344.21 117.638 1349.07 114.933C1349.79 123.587 1356.1 132.422 1346.37 138.913Z" fill="#A38E97"/>
<path d="M1209.92 93.4772C1210.46 97.0832 1212.98 99.0665 1216.05 99.4271C1214.79 101.771 1214.79 104.475 1217.49 106.819C1220.73 109.704 1223.8 108.081 1226.14 105.377C1226.5 106.098 1226.86 107 1227.58 107.541C1229.57 109.524 1232.63 109.884 1235.15 109.163C1237.68 108.442 1240.02 106.278 1240.38 103.574C1240.38 103.033 1240.38 102.492 1240.38 101.951C1242.36 102.132 1244.53 101.591 1246.33 99.2468C1247.95 97.2635 1248.31 94.559 1247.23 92.2151C1246.69 91.1333 1245.97 90.2318 1245.07 89.6909C1246.15 89.15 1246.87 88.4287 1247.59 87.5272C1249.03 85.1833 1248.31 81.9379 1246.87 79.7743C1245.25 77.6107 1242.91 75.8077 1240.02 75.8077C1238.94 75.8077 1238.04 75.988 1237.32 76.5289C1237.14 73.8244 1235.7 71.3002 1232.27 70.7593C1228.3 70.0381 1226.32 72.2017 1225.6 74.9062C1225.42 74.9062 1225.24 74.7259 1225.24 74.7259C1222.54 73.6441 1219.29 75.2668 1217.31 77.0698C1215.15 78.8728 1213.34 81.7576 1213.88 84.6424C1214.07 85.5439 1214.43 86.2651 1214.97 86.9863C1211.54 87.3469 1209.2 89.15 1209.92 93.4772ZM1234.25 106.278C1232.27 107.18 1230.29 106.639 1229.21 104.656C1228.85 104.115 1228.12 98.8862 1228.85 98.7059C1230.29 98.3453 1231.73 97.6241 1232.99 96.7226C1233.17 96.5423 1236.6 101.41 1236.78 102.132C1237.32 103.935 1236.06 105.377 1234.25 106.278ZM1243.81 97.2635C1242.36 99.4271 1238.58 100.689 1235.33 94.1984C1236.24 93.1166 1236.96 91.8545 1237.32 90.4121C1241.46 90.4121 1246.69 93.2969 1243.81 97.2635ZM1238.22 79.9546C1240.56 78.5122 1242.72 79.594 1244.17 81.5773C1245.43 83.2 1245.97 85.1833 1244.17 86.4454C1242.54 87.7076 1237.68 87.7076 1237.5 88.0682C1237.32 87.8879 1237.32 87.7075 1237.32 87.5272C1236.96 86.2651 1235.7 85.1833 1234.61 84.6424C1234.61 84.6424 1237.5 80.3152 1238.22 79.9546ZM1231.01 73.8244C1237.86 73.8244 1231.19 83.2 1232.27 83.5606C1231.91 83.3803 1229.75 82.8394 1228.85 82.8394C1227.04 76.8895 1228.3 73.8244 1231.01 73.8244ZM1219.47 104.475C1214.61 101.591 1223.62 96.9029 1223.8 97.0832C1224.34 97.8044 1225.06 98.165 1226.14 98.5256C1225.42 101.23 1223.26 106.819 1219.47 104.475ZM1225.78 83.9212C1225.78 83.9212 1224.34 85.9045 1224.16 86.0848C1222.54 87.8878 1217.85 85.0031 1217.13 82.6591C1216.41 79.4137 1223.8 74.5456 1225.78 83.9212ZM1222.72 90.0515C1222.72 90.5924 1222.54 93.4772 1222.54 94.1984C1219.29 95.6408 1214.43 98.5256 1212.98 93.2969C1211.72 88.9697 1218.03 86.806 1222.72 90.0515Z" fill="#A38E97"/>
<path d="M1227.4 32.1751C1227.22 32.1751 1227.04 31.9948 1226.86 31.9948C1224.16 30.913 1220.91 32.5357 1218.93 34.3387C1216.77 36.1417 1214.97 39.0265 1215.51 41.9113C1215.69 42.8128 1216.05 43.534 1216.59 44.2552C1213.52 44.4355 1211 46.4188 1211.72 50.746C1212.26 54.352 1214.79 56.3353 1217.67 56.6959C1216.41 59.0398 1216.41 61.7443 1219.11 64.0882C1222.36 66.973 1225.42 65.3503 1227.76 62.6458C1228.12 63.367 1228.49 64.2685 1229.21 64.9897C1231.19 66.973 1234.25 67.3336 1236.78 66.6124C1239.3 65.8912 1241.64 63.7276 1242 61.0231C1242 60.4822 1242 59.9413 1242 59.4004C1243.99 59.5807 1246.15 59.0398 1247.95 56.6959C1249.57 54.7126 1249.94 52.0081 1248.85 49.6642C1248.31 48.5824 1247.59 47.6809 1246.69 47.14C1247.59 46.5991 1248.49 45.8779 1249.21 44.9764C1250.66 42.6325 1249.93 39.3871 1248.49 37.2235C1246.87 35.0599 1244.35 33.2569 1241.64 33.2569C1240.56 33.2569 1239.66 33.4372 1238.94 33.9781C1238.76 31.2736 1237.32 28.7494 1233.89 28.2085C1230.11 27.307 1228.12 29.4706 1227.4 32.1751ZM1227.76 41.0098C1227.76 41.0098 1226.32 42.9931 1226.14 43.1734C1224.52 45.1567 1219.65 42.0916 1219.11 39.7477C1218.39 36.5023 1225.78 31.6342 1227.76 41.0098ZM1214.97 50.5657C1213.7 46.0582 1220.01 44.0749 1224.7 47.3203C1224.52 47.8612 1224.52 50.746 1224.52 51.4672C1221.28 52.9096 1216.59 55.7944 1214.97 50.5657ZM1221.46 61.7443C1216.59 58.8595 1225.6 54.1717 1225.78 54.352C1226.32 55.0732 1227.04 55.4338 1228.12 55.7944C1227.4 58.4989 1225.24 63.9079 1221.46 61.7443ZM1236.42 63.367C1234.43 64.2685 1232.45 63.7276 1231.37 61.564C1231.01 61.0231 1230.29 55.7944 1231.01 55.6141C1232.45 55.2535 1233.89 54.5323 1235.15 53.6308C1235.33 53.4505 1238.76 58.3186 1238.94 59.0398C1239.3 61.0231 1238.22 62.6458 1236.42 63.367ZM1245.97 54.5323C1244.53 56.6959 1240.74 57.958 1237.5 51.4672C1238.4 50.3854 1239.12 49.1233 1239.48 47.6809C1243.45 47.5006 1248.67 50.3854 1245.97 54.5323ZM1240.2 37.0432C1242.54 35.6008 1244.71 36.6826 1246.15 38.6659C1247.41 40.2886 1247.95 42.2719 1246.15 43.534C1244.53 44.7961 1239.66 44.7961 1239.48 45.1567C1239.3 44.9764 1239.3 44.7961 1239.3 44.6158C1238.94 43.3537 1237.68 42.2719 1236.6 41.731C1236.6 41.731 1239.66 37.4038 1240.2 37.0432ZM1232.99 31.0933C1239.84 31.0933 1233.17 40.4689 1234.25 40.8295C1233.89 40.6492 1231.73 40.1083 1230.83 40.1083C1229.03 34.1584 1230.47 31.0933 1232.99 31.0933Z" fill="#A38E97"/>
<path d="M1239.84 11.08C1237.86 12.883 1237.14 15.4072 1239.12 18.4723C1241.46 22.0783 1244.89 21.5374 1247.77 19.7344C1247.77 20.6359 1248.13 21.3571 1248.49 22.2586C1249.75 24.7828 1252.64 26.0449 1255.34 26.0449C1258.05 26.0449 1260.93 24.7828 1262.01 22.2586C1262.19 21.7177 1262.37 21.3571 1262.55 20.8162C1264.35 21.7177 1266.7 21.5374 1269.04 20.095C1271.2 18.8329 1272.29 16.1284 1272.11 13.7845C1271.93 12.7027 1271.56 11.6209 1270.84 10.7194C1271.93 10.5391 1273.01 10.1785 1273.91 9.27699C1276.07 7.47398 1276.25 4.22858 1275.35 1.52408C1274.99 0.622577 1274.63 -0.0986235 1274.09 -0.819824H1269.22C1270.66 -0.459224 1271.75 0.802877 1272.29 2.42558C1273.01 4.40888 1272.83 6.39218 1270.84 7.11338C1268.86 7.83459 1264.35 6.57248 1263.99 6.57248C1263.99 6.39218 1263.99 6.21188 1263.99 6.03158C1263.99 4.58918 1263.09 3.32708 1262.19 2.42558C1262.19 2.42558 1265.98 -0.459224 1266.88 -0.819824H1261.29C1260.57 0.0816767 1260.03 0.622577 1260.39 0.802877C1260.03 0.622577 1258.23 -0.459224 1257.51 -0.819824H1254.08C1254.08 -0.819824 1254.08 -0.819824 1254.08 -0.639524C1254.08 -0.639524 1252.1 0.802877 1251.92 0.983178C1250.84 1.70438 1249.03 0.622577 1247.77 -0.819824H1239.12C1237.5 -0.278924 1236.42 1.16348 1235.88 3.86798C1235.33 7.29368 1237.14 9.81789 1239.84 11.08ZM1263.09 8.73609C1267.06 9.81789 1271.02 14.1451 1267.24 17.2102C1265.26 18.8329 1261.11 18.8329 1260.03 11.8012C1261.47 11.08 1262.55 9.99819 1263.09 8.73609ZM1252.64 13.9648C1254.08 14.1451 1255.7 13.7845 1257.14 13.2436C1257.33 13.2436 1259.31 18.8329 1259.31 19.5541C1259.13 21.5374 1257.51 22.7995 1255.52 22.9798C1253.36 23.1601 1251.56 22.0783 1251.2 19.9147C1251.2 19.1935 1251.92 13.9648 1252.64 13.9648ZM1241.82 17.0299C1238.04 12.7027 1247.95 10.8997 1248.13 11.2603C1248.49 11.9815 1249.03 12.7027 1249.93 13.2436C1248.49 15.5875 1244.71 20.2753 1241.82 17.0299ZM1249.21 4.04828C1249.03 4.58918 1247.95 7.29368 1247.95 8.01488C1244.35 8.37549 1238.94 9.81789 1238.94 4.40888C1238.94 -0.278923 1245.61 -0.459224 1249.21 4.04828Z" fill="#A38E97"/>
<path d="M1196.94 15.5876C1194.96 17.3906 1194.24 20.0951 1196.22 22.9799C1198.56 26.5859 1201.99 26.045 1204.87 24.0617C1204.87 24.9632 1205.23 25.8647 1205.59 26.5859C1206.86 29.1101 1209.74 30.1919 1212.44 30.3722C1215.15 30.3722 1218.03 29.1101 1219.11 26.5859C1219.29 26.045 1219.47 25.6844 1219.65 25.1435C1221.46 26.045 1223.8 25.8647 1226.14 24.4223C1228.3 23.1602 1229.39 20.4557 1229.21 18.1118C1229.03 17.03 1228.67 15.9482 1227.94 15.0467C1229.03 14.8664 1230.11 14.5058 1231.01 13.6043C1233.17 11.8013 1233.35 8.55591 1232.45 5.85141C1231.55 3.3272 1229.75 0.803002 1227.04 0.0818011C1226.14 -0.278799 1225.06 -0.278799 1224.16 -0.0984991C1224.16 -0.459099 1224.16 -0.6394 1224.34 -1H1221.09C1220.19 1.7045 1216.77 4.76961 1217.31 5.13021C1216.95 4.94991 1214.97 3.6878 1214.43 3.3272C1214.43 1.5242 1214.61 0.0818011 1214.97 -1H1210.64C1211.18 0.0818011 1211.36 1.5242 1211.18 3.5075C1211.18 3.5075 1209.2 4.94991 1209.02 5.13021C1207.04 6.57261 1203.25 2.2454 1203.43 -0.0984991C1203.43 -0.459099 1203.61 -0.6394 1203.61 -1H1199.83C1199.65 -0.459099 1199.46 0.0818009 1199.28 0.622702C1199.1 1.5242 1199.28 2.4257 1199.65 3.1469C1196.58 2.4257 1193.7 3.5075 1193.16 8.01501C1192.44 11.621 1194.24 14.3255 1196.94 15.5876ZM1223.98 3.3272C1226.5 2.606 1228.3 4.2287 1229.21 6.57261C1229.93 8.55591 1229.75 10.5392 1227.76 11.2604C1225.78 11.9816 1221.28 10.7195 1220.91 10.8998C1220.91 10.7195 1220.91 10.5392 1220.91 10.1786C1220.91 8.73621 1220.01 7.47411 1219.11 6.57261C1219.29 6.75291 1223.26 3.5075 1223.98 3.3272ZM1220.19 13.2437C1224.16 14.3255 1228.12 18.6527 1224.34 21.7178C1222.36 23.3405 1218.21 23.3405 1217.13 16.3088C1218.39 15.4073 1219.47 14.5058 1220.19 13.2437ZM1209.74 18.4724C1211.18 18.6527 1212.8 18.2921 1214.25 17.7512C1214.43 17.7512 1216.41 23.3405 1216.41 24.0617C1216.23 26.045 1214.61 27.3071 1212.62 27.4874C1210.46 27.6677 1208.66 26.5859 1208.3 24.4223C1208.12 23.5208 1209.02 18.2921 1209.74 18.4724ZM1198.92 21.3572C1195.14 17.03 1205.05 15.227 1205.23 15.5876C1205.59 16.3088 1206.13 17.03 1207.04 17.5709C1205.41 19.9148 1201.81 24.6026 1198.92 21.3572ZM1206.13 8.55591C1205.95 9.09681 1204.87 11.8013 1204.87 12.5225C1201.27 12.8831 1195.86 14.3255 1195.86 8.91651C1196.04 4.22871 1202.71 4.04841 1206.13 8.55591Z" fill="#A38E97"/>
<path d="M1176.57 77.2503C1178.92 80.8563 1182.34 80.3154 1185.23 78.5124C1185.23 79.4139 1185.59 80.3154 1185.95 81.0366C1187.21 83.5608 1190.09 84.6426 1192.8 84.8229C1195.5 84.8229 1198.38 83.5608 1199.46 81.0366C1199.65 80.4957 1199.83 80.1351 1200.01 79.5942C1201.81 80.4957 1204.15 80.3154 1206.49 78.873C1208.66 77.6109 1209.74 74.9064 1209.56 72.5625C1209.38 71.4807 1209.02 70.3989 1208.3 69.4974C1209.38 69.3171 1210.46 68.9565 1211.36 68.055C1213.52 66.252 1213.7 63.0066 1212.8 60.4824C1211.9 57.9582 1210.1 55.434 1207.4 54.7128C1206.49 54.3522 1205.41 54.3521 1204.51 54.5325C1205.23 51.8279 1204.51 49.1234 1201.27 47.5007C1197.66 45.6977 1195.14 47.1401 1193.7 49.484C1193.52 49.3037 1193.52 49.3037 1193.34 49.1234C1190.99 47.3204 1187.57 47.8613 1185.04 48.9431C1182.52 50.0249 1180 52.1886 1179.64 55.2537C1179.46 56.1552 1179.64 57.0567 1180 57.7779C1176.93 57.0567 1174.05 58.1385 1173.51 62.646C1172.97 66.252 1174.77 68.9565 1177.47 70.0383C1175.49 71.661 1174.77 74.1852 1176.57 77.2503ZM1179.28 75.6276C1175.49 71.3004 1185.41 69.4974 1185.59 69.858C1185.95 70.5792 1186.49 71.3004 1187.39 71.8413C1185.95 74.1852 1182.34 78.873 1179.28 75.6276ZM1204.87 75.9882C1202.89 77.6109 1198.74 77.6109 1197.66 70.5792C1198.92 69.858 1200.01 68.7762 1200.73 67.5141C1204.51 68.5959 1208.66 72.7428 1204.87 75.9882ZM1204.33 57.5976C1207.04 56.8764 1208.84 58.4991 1209.56 60.843C1210.28 62.8263 1210.1 64.8096 1208.12 65.5308C1206.13 66.252 1201.63 64.9899 1201.27 64.9899C1201.27 64.8096 1201.27 64.6293 1201.27 64.449C1201.27 63.0066 1200.37 61.7445 1199.46 60.843C1199.65 61.0233 1203.79 57.7779 1204.33 57.5976ZM1199.46 49.6643C1205.95 51.6476 1196.94 58.6794 1197.84 59.4006C1197.48 59.2203 1195.5 57.9582 1194.96 57.5976C1194.6 51.4673 1196.94 48.9431 1199.46 49.6643ZM1194.78 71.8413C1194.96 71.8413 1196.94 77.4306 1196.94 78.1518C1196.76 80.1351 1195.14 81.3972 1193.16 81.5775C1190.99 81.7578 1189.19 80.676 1188.83 78.5124C1188.65 77.7912 1189.55 72.5625 1190.27 72.7428C1191.71 72.7428 1193.16 72.3822 1194.78 71.8413ZM1191.35 57.7779C1191.35 57.7779 1189.37 59.2203 1189.19 59.4006C1187.21 60.843 1183.42 56.5158 1183.6 53.9916C1183.78 50.7461 1192.25 48.2219 1191.35 57.7779ZM1176.39 63.0066C1176.39 58.3188 1183.06 58.1385 1186.67 62.646C1186.49 63.1869 1185.41 65.8914 1185.41 66.6126C1181.8 67.1535 1176.39 68.5959 1176.39 63.0066Z" fill="#A38E97"/>
<path d="M1151.88 24.4223C1151.34 28.0283 1153.14 30.7328 1155.84 31.8146C1153.86 33.6176 1153.14 36.3221 1155.12 39.2069C1157.47 42.8129 1160.89 42.272 1163.78 40.2887C1163.78 41.1902 1164.14 42.0917 1164.5 42.8129C1165.76 45.3372 1168.64 46.4189 1171.35 46.5993C1174.05 46.5993 1176.93 45.3372 1178.02 42.8129C1178.2 42.272 1178.38 41.9114 1178.56 41.3705C1180.36 42.272 1182.7 42.0917 1185.04 40.6493C1187.21 39.3872 1188.29 36.6827 1187.93 34.3388C1187.75 33.257 1187.39 32.1752 1186.67 31.2737C1187.75 31.0934 1188.83 30.7328 1189.73 29.8313C1191.89 28.0283 1192.07 24.7829 1191.35 22.2587C1190.45 19.7345 1188.65 17.2103 1185.95 16.4891C1185.04 16.1285 1183.96 16.1285 1183.06 16.3088C1183.78 13.6043 1183.06 10.8998 1179.82 9.27711C1176.21 7.47411 1173.69 8.91651 1172.25 11.2604C1172.07 11.0801 1172.07 11.0801 1171.89 10.8998C1169.54 9.09681 1166.12 9.63771 1163.6 10.7195C1160.89 11.8013 1158.55 13.9649 1158.19 17.03C1158.01 17.9315 1158.19 18.833 1158.55 19.5542C1155.48 19.0133 1152.6 20.0951 1151.88 24.4223ZM1157.83 37.7645C1154.04 33.4373 1163.96 31.6343 1164.14 31.9949C1164.5 32.7161 1165.04 33.4373 1165.94 33.9782C1164.5 36.3221 1160.89 41.0099 1157.83 37.7645ZM1183.42 38.1251C1181.44 39.7478 1177.29 39.9281 1176.21 32.7161C1177.47 31.9949 1178.56 30.9131 1179.28 29.651C1183.06 30.7328 1187.21 34.8797 1183.42 38.1251ZM1183.06 19.7345C1185.77 19.0133 1187.57 20.636 1188.29 22.9799C1189.01 24.9632 1188.83 26.9465 1186.85 27.6677C1184.86 28.3889 1180.36 27.1268 1180 27.1268C1180 26.9465 1180 26.7662 1180 26.5859C1180 25.1435 1179.1 23.8814 1178.2 22.9799C1178.2 23.1602 1182.34 19.9148 1183.06 19.7345ZM1178.02 11.8013C1184.5 13.7846 1175.49 20.8163 1176.39 21.5375C1176.03 21.3572 1174.05 20.0951 1173.51 19.7345C1173.33 13.6043 1175.49 11.0801 1178.02 11.8013ZM1173.33 33.9782C1173.51 33.9782 1175.49 39.5675 1175.49 40.2887C1175.31 42.272 1173.69 43.5341 1171.71 43.7144C1169.54 43.8947 1167.74 42.813 1167.38 40.6493C1167.2 39.9281 1168.1 34.6994 1168.82 34.8797C1170.26 34.8797 1171.89 34.5191 1173.33 33.9782ZM1169.9 19.9148C1169.9 19.9148 1167.92 21.3572 1167.74 21.5375C1165.76 22.9799 1161.97 18.6527 1162.15 16.1285C1162.33 12.8831 1170.81 10.3589 1169.9 19.9148ZM1165.22 24.9632C1165.04 25.5041 1163.96 28.2086 1163.96 28.9298C1160.35 29.2904 1154.94 30.7328 1154.94 25.3238C1155.12 20.636 1161.61 20.4557 1165.22 24.9632Z" fill="#A38E97"/>
<path d="M1351.06 2.96648C1351.06 -2.62282 1342.4 -2.08192 1342.4 3.50739C1342.58 9.09669 1351.06 8.55579 1351.06 2.96648Z" fill="#A38E97"/>
<path d="M1196.58 92.0347C1196.58 97.624 1205.23 97.0831 1205.23 91.4938C1205.23 85.9045 1196.58 86.4454 1196.58 92.0347Z" fill="#A38E97"/>
<path d="M1159.81 58.3187C1159.81 63.908 1168.46 63.3671 1168.46 57.7778C1168.46 52.1885 1159.81 52.7294 1159.81 58.3187Z" fill="#A38E97"/>
<path d="M1200.19 36.1418C1200.19 30.5525 1191.53 31.0934 1191.53 36.6827C1191.53 42.272 1200.19 41.7311 1200.19 36.1418Z" fill="#A38E97"/>
<path d="M1212.44 37.5842C1212.44 31.9949 1203.79 32.5358 1203.79 38.1251C1203.79 43.7144 1212.44 43.1735 1212.44 37.5842Z" fill="#A38E97"/>
<path d="M1262.01 33.257V32.5358C1262.01 26.9465 1253.36 27.4874 1253.36 33.0767V33.7979C1253.36 39.3872 1262.01 38.8463 1262.01 33.257Z" fill="#A38E97"/>
<path d="M1284.18 20.9965C1284.18 15.4072 1275.53 15.9481 1275.53 21.5374C1275.71 27.1267 1284.18 26.5858 1284.18 20.9965Z" fill="#A38E97"/>
<path d="M1189.37 2.96648C1189.37 -2.62282 1180.72 -2.08192 1180.72 3.50739C1180.72 9.09669 1189.37 8.55579 1189.37 2.96648Z" fill="#A38E97"/>
<path d="M1173.51 0.0818011C1173.51 -0.278799 1173.33 -0.6394 1173.33 -1H1165.22C1165.04 -0.459099 1164.86 0.0818009 1164.86 0.622702C1164.86 6.21201 1173.51 5.67111 1173.51 0.0818011Z" fill="#A38E97"/>
<path d="M1157.65 5.13006C1157.65 -0.459247 1148.99 0.0816536 1148.99 5.67096C1149.18 11.2603 1157.65 10.7194 1157.65 5.13006Z" fill="#A38E97"/>
<path d="M1143.77 12.7026H1143.05C1137.46 12.7026 1138 21.357 1143.59 21.357H1144.31C1149.9 21.357 1149.36 12.7026 1143.77 12.7026Z" fill="#A38E97"/>
<path d="M1155.48 44.0749C1155.48 38.4856 1146.83 39.0265 1146.83 44.6158C1147.01 50.2051 1155.48 49.6642 1155.48 44.0749Z" fill="#A38E97"/>
<path d="M1149.36 -1H1143.05C1143.95 -0.0984991 1145.21 0.442402 1146.47 0.442402C1147.73 0.262101 1148.63 -0.278799 1149.36 -1Z" fill="#A38E97"/>
<path d="M1135.66 9.09679H1136.38C1141.97 9.09679 1141.42 0.442383 1135.84 0.442383H1135.12C1129.53 0.442383 1130.25 9.09679 1135.66 9.09679Z" fill="#A38E97"/>
<path d="M981.903 11.4407C982.804 11.8013 983.525 11.9816 984.427 11.9816C982.804 14.6861 982.804 17.7512 986.77 19.7345C990.014 21.5375 993.079 20.636 995.242 18.4724C996.323 20.8163 998.486 22.439 1001.91 21.7178C1006.06 20.8163 1006.78 17.3906 1005.88 13.9649C1006.78 14.1452 1007.68 14.3255 1008.58 14.1452C1011.28 13.7846 1013.45 11.621 1014.35 9.09681C1015.25 6.57261 1015.07 3.5075 1012.91 1.5242C1012.55 1.1636 1012.19 0.803002 1011.64 0.622702C1012 0.0818011 1012.37 -0.459099 1012.73 -1H1008.94C1007.68 -0.0984991 1005.7 0.262101 1002.63 -0.278799C1002.63 -0.459099 1002.45 -0.8197 1002.45 -1H978.839C978.118 0.622702 977.757 2.606 977.938 4.22871C977.938 7.11351 979.199 10.1786 981.903 11.4407ZM1002.99 2.9666C1002.99 2.7863 1008.94 2.7863 1009.66 3.1469C1011.46 4.04841 1012 5.85141 1011.64 7.83471C1011.1 9.99831 1009.48 11.2604 1007.32 10.8998C1006.78 10.7195 1002.09 8.19531 1002.27 7.65441C1002.81 6.03171 1002.99 4.58931 1002.99 2.9666ZM997.945 10.7195C998.847 10.7195 999.568 10.3589 1000.47 9.63771C1002.27 11.8013 1005.34 16.8497 1001.19 18.4724C995.963 20.8163 997.585 10.7195 997.945 10.7195ZM994.881 9.99831C993.98 13.424 993.439 19.0133 988.392 17.2103C984.066 15.5876 986.049 9.27711 991.637 7.47411C991.997 7.83471 994.34 9.63771 994.881 9.99831ZM988.572 1.3439C988.572 1.3439 989.293 3.68781 989.474 3.8681C990.014 6.21201 984.787 8.37561 982.624 7.29381C979.38 6.03171 979.92 -2.803 988.572 1.3439Z" fill="#A38E97"/>
<path d="M937.742 20.8162C938.463 21.5374 939.184 21.898 940.085 22.0783C937.742 24.0616 936.841 27.1267 939.905 30.1918C942.428 32.716 945.673 32.8963 948.377 31.4539C948.737 33.9781 950.359 36.1417 953.964 36.5023C958.29 36.8629 959.913 33.7978 960.093 30.3721C960.814 30.913 961.715 31.2736 962.616 31.2736C965.32 31.8145 968.024 30.1918 969.646 28.0282C971.268 25.8646 971.989 22.7995 970.547 20.4556C970.367 19.9147 970.007 19.5541 969.646 19.1935C971.449 18.292 972.71 16.489 972.891 13.6042C973.071 11.08 971.629 8.73609 969.646 7.47398C968.565 6.93308 967.483 6.57248 966.402 6.57248C966.943 5.67098 967.303 4.58918 967.123 3.32708C966.942 1.52408 966.041 0.261977 964.599 -0.819824H953.244C952.883 -0.459224 952.522 0.0816767 952.162 0.622577C951.801 0.0816767 951.261 -0.459224 950.72 -0.819824H944.231C941.167 0.983178 940.806 3.68768 941.707 6.21188C941.527 6.21188 941.347 6.21188 941.167 6.39218C938.283 7.11338 936.661 10.3588 936.12 12.883C935.219 15.4072 935.579 18.8329 937.742 20.8162ZM942.248 28.2085C938.643 25.3237 942.428 19.9147 948.196 19.7344C948.377 20.2753 949.999 22.6192 950.54 23.1601C948.737 26.4055 946.574 31.4539 942.248 28.2085ZM967.123 26.0449C966.041 28.0282 964.058 28.5691 962.076 27.6676C961.535 27.307 957.75 23.5207 958.291 22.9798C959.192 21.898 959.913 20.4556 960.454 19.0132C960.454 18.8329 966.222 20.6359 966.762 21.1768C968.204 22.4389 968.024 24.4222 967.123 26.0449ZM969.646 13.2436C969.826 15.9481 967.303 19.1935 960.994 15.7678C961.174 14.3254 960.994 12.883 960.273 11.6209C963.518 9.09669 969.466 8.37549 969.646 13.2436ZM954.686 2.60588C955.767 0.0816768 958.11 -0.278924 960.454 0.442277C962.436 0.983178 963.878 2.24528 963.337 4.40888C962.797 6.39218 959.011 9.27699 958.831 9.63759C958.651 9.45729 958.471 9.45729 958.291 9.27699C957.209 8.55579 955.767 8.37549 954.325 8.55579C954.685 8.37549 954.505 3.14678 954.686 2.60588ZM953.244 24.9631C954.145 25.1434 955.046 25.1434 955.947 24.7828C957.029 27.307 958.471 33.0766 954.145 33.4372C948.377 33.7978 952.883 24.7828 953.244 24.9631ZM945.312 1.88468C950.72 -2.26223 951.081 9.45729 951.982 9.09669C951.621 9.27699 949.458 9.99819 948.737 10.3588C944.051 6.57248 943.33 3.32708 945.312 1.88468ZM947.115 13.0633C947.115 13.0633 947.115 15.5875 947.115 15.7678C946.935 18.292 941.347 18.6526 939.544 17.0299C936.841 14.8663 939.905 6.57248 947.115 13.0633Z" fill="#A38E97"/>
<path d="M896.825 16.489C894.482 18.4723 893.581 21.5374 896.645 24.6025C899.168 27.1267 902.413 27.307 905.117 25.8646C905.477 28.3888 907.099 30.5524 910.704 30.913C915.03 31.2736 916.653 28.2085 916.833 24.7828C917.554 25.3237 918.455 25.504 919.356 25.6843C922.06 26.2252 924.764 24.6025 926.386 22.4389C928.008 20.2753 928.729 17.2102 927.287 14.8663C927.107 14.3254 926.747 13.9648 926.386 13.6042C928.189 12.7027 929.45 10.8997 929.631 8.01489C929.811 5.49069 928.369 3.14678 926.386 1.88468C925.305 1.34378 924.223 0.983182 923.142 0.983182C923.502 0.442282 923.682 -0.278919 923.682 -1.00012H920.077C919.176 0.983182 915.751 3.50738 915.751 3.86799C915.571 3.68769 915.391 3.68769 915.211 3.50738C914.129 2.78618 912.687 2.60588 911.245 2.78618C911.245 2.78618 911.245 0.622582 911.245 -1.00012H907.46C908.181 1.16348 908.541 3.50738 908.902 3.32708C908.541 3.50738 906.378 4.22859 905.657 4.58919C902.773 2.42558 901.331 0.442282 901.151 -1.18042H897.907C897.907 -0.639519 898.087 -0.0986187 898.267 0.261982C898.087 0.261982 897.907 0.261982 897.726 0.442282C894.842 1.16348 893.22 4.40889 892.679 6.93309C891.958 9.63759 892.319 13.0633 894.482 15.0466C895.203 15.9481 895.924 16.3087 896.825 16.489ZM926.386 7.65429C926.566 10.3588 924.043 13.6042 917.734 10.1785C917.914 8.73609 917.734 7.29369 917.013 6.03159C920.438 3.32708 926.206 2.78618 926.386 7.65429ZM915.03 17.3905C915.932 16.3087 916.653 14.8663 917.193 13.4239C917.193 13.2436 922.961 15.0466 923.502 15.5875C925.124 17.0299 924.944 18.8329 923.863 20.6359C922.781 22.6192 920.798 23.1601 918.816 22.2586C918.275 21.7177 914.67 17.9314 915.03 17.3905ZM910.164 19.3738C911.065 19.5541 911.966 19.5541 912.867 19.1935C913.949 21.7177 915.391 27.4873 911.065 27.8479C905.297 28.2085 909.803 19.1935 910.164 19.3738ZM907.46 17.7511C905.657 20.8162 903.494 26.0449 899.168 22.6192C895.563 19.7344 899.349 14.3254 905.117 14.1451C905.297 14.686 906.919 17.2102 907.46 17.7511ZM903.855 7.47399C903.855 7.47399 903.855 9.99819 903.855 10.1785C903.675 12.7027 898.087 13.0633 896.284 11.4406C893.761 9.27699 896.825 0.983182 903.855 7.47399Z" fill="#A38E97"/>
<path d="M886.551 -1H880.242C881.864 0.622702 884.748 0.622702 886.551 -1Z" fill="#A38E97"/>
<path d="M937.201 -1H928.91C929.45 3.6878 936.12 3.3272 937.201 -1Z" fill="#A38E97"/>
<path d="M1006.96 42.6325C1004.61 41.731 1002.81 44.4355 1004.61 46.2385C1008.58 50.0248 1005.88 53.4505 1007.14 57.7777C1007.86 60.4822 1008.94 62.1049 1010.92 64.0882C1013.27 66.6124 1017.23 68.4155 1019.94 70.3988C1026.06 74.726 1026.42 78.332 1026.97 91.3136C1025.34 101.41 1025.52 111.868 1026.42 122.325C1022.28 112.048 1015.61 102.312 1007.14 99.4271C1004.61 98.5256 1002.63 102.492 1005.34 103.394C1012.91 105.918 1018.67 114.753 1022.46 123.948C1015.97 119.26 1006.6 119.621 999.027 118.719C996.323 118.359 995.422 122.145 998.126 122.866C1003.17 124.309 1006.6 130.799 1011.1 133.504C1017.23 137.29 1026.42 138.011 1029.67 149.19C1031.47 162.532 1034.18 178.218 1043.91 187.594C1049.68 193.183 1052.92 185.07 1051.3 182.906C1050.94 182.365 1050.58 181.824 1050.22 181.283C1045.35 163.434 1052.92 128.095 1074.91 128.095C1077.62 128.095 1077.62 127.193 1074.91 127.193C1054.36 127.193 1044.27 150.452 1044.45 170.285C1035.08 148.108 1036.88 121.784 1051.3 103.935C1057.79 97.2635 1064.64 106.278 1070.77 108.442C1076.71 110.606 1082.48 108.081 1088.25 112.048C1089.87 113.13 1092.4 111.868 1091.68 109.704C1087.35 97.0832 1074.55 91.6742 1062.29 93.8378C1065.9 91.4939 1069.68 89.3303 1074.01 87.7076C1085.55 83.3804 1096.72 82.6592 1107.72 84.2819C1104.29 93.1166 1117.27 101.41 1121.78 92.3954C1124.66 96.0014 1127.91 99.968 1126.1 106.459C1125.02 110.425 1121.42 114.212 1120.34 118.178C1119.07 122.866 1120.15 127.374 1118.17 132.242C1117.45 134.225 1119.43 136.028 1121.24 134.946C1133.31 128.275 1133.13 116.736 1130.79 105.016C1129.71 99.4271 1128.63 93.4772 1126.46 90.5924C1127.91 91.3136 1129.53 91.8545 1130.97 92.756C1139.62 97.2635 1140.7 106.098 1141.97 114.572C1143.41 123.768 1149.36 130.619 1154.58 138.011C1155.66 139.454 1158.55 139.273 1158.55 137.29C1158.55 120.522 1148.81 113.491 1143.77 101.771C1142.69 99.4271 1139.8 95.4605 1138.54 93.6575C1143.23 96.1817 1151.34 98.8862 1154.58 104.115C1160.89 115.474 1167.92 118.719 1177.29 122.506C1179.64 123.407 1180.18 119.26 1179.46 118.359C1168.82 103.754 1148.81 94.1984 1132.41 87.347C1139.98 87.1667 1146.47 88.4288 1154.4 92.0348C1163.23 96.0014 1173.33 95.6408 1182.16 99.2468C1184.14 100.148 1185.95 97.9847 1184.86 96.1817C1178.56 84.4622 1163.96 83.741 1152.06 83.741C1151.16 83.741 1136.02 82.8395 1128.45 83.2001C1141.06 72.923 1157.29 83.2001 1164.14 72.3821C1165.04 70.9397 1163.6 69.3169 1161.97 69.3169C1154.4 69.3169 1145.75 68.2351 1138.72 71.6609C1133.49 74.3654 1128.81 77.9714 1123.76 80.6759C1123.76 80.4956 1123.76 80.135 1123.58 79.9547C1126.1 73.1033 1139.62 65.17 1138.54 42.8128C1138.54 41.0098 1135.48 40.8295 1134.57 42.6325C1131.69 48.5824 1126.82 49.6642 1127.36 57.0565C1127.91 65.1701 1124.84 70.2185 1121.06 75.4472C1121.06 70.3988 1108.26 70.579 1108.08 80.6759C1094.92 78.6926 1081.4 79.7744 1067.34 85.544C1066.26 85.9046 1065.36 86.6258 1064.28 86.9864C1067.52 82.4789 1071.13 78.332 1074.91 74.0048C1079.06 69.3169 1081.58 64.9897 1078.88 58.8595C1077.98 57.0565 1075.99 56.8762 1074.91 58.6792C1070.59 65.7109 1061.75 66.6124 1057.61 73.4639C1053.46 80.135 1056.89 90.4121 1051.48 96.0014C1030.75 115.654 1029.13 149.911 1041.57 175.874C1033.63 165.417 1032.55 147.748 1031.47 136.208C1029.85 120.342 1028.23 104.295 1030.93 88.4288C1035.44 73.6442 1057.25 29.8312 1077.44 39.2068C1079.06 39.928 1079.78 41.9113 1081.22 42.6325C1085.37 44.9764 1091.13 45.337 1094.02 49.1233C1095.1 50.3854 1097.8 50.3854 1097.98 48.4021C1098.71 39.2068 1091.86 31.9948 1083.56 29.6509C1089.87 27.6676 1096.36 26.2252 1103.03 25.504C1116.01 37.9447 1128.27 28.9297 1134.21 28.7494C1135.66 28.7494 1136.92 26.5858 1135.84 25.3237C1127 15.2269 1112.94 9.09669 1103.39 21.1768C1093.66 22.4389 1085.01 25.1434 1075.27 28.5691C1082.66 19.7344 1088.43 9.81789 1093.12 -0.819824H1090.59C1085.91 9.63759 1079.24 18.4723 1071.31 26.7661C1072.03 25.1434 1072.75 23.5207 1073.29 21.898C1075.63 12.7027 1070.95 5.49068 1064.64 -0.819824H1060.49C1060.31 -0.459224 1060.31 -0.278924 1060.31 0.0816767C1060.31 7.11338 1057.25 12.883 1055.26 19.5541C1053.1 26.5858 1055.99 37.4038 1050.94 43.7143C1041.21 52.549 1034.36 63.908 1030.03 76.3487C1028.05 61.2034 1023.54 48.943 1006.96 42.6325Z" fill="#A38E97"/>
<path d="M858.973 102.673C856.449 103.033 856.269 106.279 858.612 107C861.857 107.901 874.114 113.671 886.551 112.95C889.074 112.769 894.121 108.082 897.546 89.6909C897.907 87.8879 895.203 87.347 893.761 88.4288C883.847 95.2802 886.731 97.9847 883.306 102.853C885.289 92.5757 878.98 90.2318 874.835 84.2819C873.573 82.2986 869.968 83.9213 871.049 86.0849C873.393 91.8545 867.444 95.4605 875.195 103.033C865.462 97.9847 862.938 102.132 858.973 102.673Z" fill="#A38E97"/>
<path d="M972.71 85.544C972.891 88.4288 974.153 91.4939 976.676 92.756C977.577 93.1166 978.298 93.2969 979.199 93.2969C977.577 96.0014 977.577 99.0665 981.543 101.05C984.787 102.853 987.851 101.951 990.014 99.7877C991.096 102.132 993.259 103.754 996.684 103.033C1000.83 102.132 1001.55 98.7059 1000.65 95.2802C1001.55 95.4605 1002.45 95.6408 1003.35 95.4605C1006.06 95.0999 1008.22 92.9363 1009.12 90.4121C1010.02 87.8879 1009.84 84.8228 1007.68 82.8395C1007.32 82.4789 1006.96 82.1183 1006.42 81.938C1007.86 80.4956 1008.58 78.332 1007.86 75.6275C1007.32 73.1032 1005.34 71.3002 1002.81 70.579C1001.73 70.3987 1000.47 70.3987 999.387 70.7593C999.568 69.6775 999.568 68.5957 999.207 67.3336C998.126 64.6291 995.242 63.367 992.538 63.367C989.834 63.1867 986.95 64.2685 985.328 66.4321C984.787 67.1533 984.427 68.0548 984.246 68.9563C981.903 67.3336 979.199 67.1533 976.496 69.4972C973.612 72.2017 973.972 75.0866 975.775 77.4305C975.595 77.4305 975.414 77.6108 975.414 77.6108C973.251 79.2335 972.53 82.8395 972.71 85.544ZM983.345 98.5256C979.019 96.9029 981.002 90.5924 986.59 88.7894C986.95 89.15 989.293 91.1333 989.834 91.4939C988.933 94.7393 988.572 100.329 983.345 98.5256ZM996.143 99.968C990.916 102.132 992.538 92.0348 992.899 92.0348C993.8 92.0348 994.701 91.6742 995.422 90.953C997.044 93.2969 1000.29 98.3453 996.143 99.968ZM1006.42 89.15C1005.88 91.3136 1004.25 92.5757 1002.09 92.2151C1001.55 92.0348 996.864 89.5106 997.044 88.9697C997.585 87.5273 997.945 86.0849 997.945 84.4622C997.945 84.2819 1003.89 84.2819 1004.61 84.6425C1006.42 85.3637 1006.96 87.1667 1006.42 89.15ZM1005.16 76.1684C1006.06 78.6926 1004.79 82.4789 997.585 81.0365C997.224 79.5941 996.684 78.332 995.782 77.2502C998.126 73.8245 1003.53 71.4805 1005.16 76.1684ZM992.718 66.4321C994.701 66.4321 996.684 67.1533 996.684 69.4972C996.684 71.4805 993.98 75.4471 993.98 75.8077C993.8 75.8077 993.619 75.6275 993.439 75.6275C992.177 75.2669 990.735 75.4472 989.474 75.9881C989.654 75.9881 987.851 70.9396 988.032 70.2184C988.032 67.5139 990.195 66.4321 992.718 66.4321ZM978.659 72.382C982.624 66.973 986.229 77.7911 987.13 77.2502C986.77 77.4305 984.967 78.8729 984.427 79.4138C978.659 77.4305 977.036 74.3654 978.659 72.382ZM983.525 82.4789C983.525 82.4789 984.246 84.8228 984.427 85.0031C984.967 87.347 979.74 89.5106 977.577 88.4288C974.333 87.347 974.873 78.5123 983.525 82.4789Z" fill="#A38E97"/>
<path d="M915.211 70.0382C914.309 71.4806 915.751 73.1033 917.193 73.1033C923.863 73.1033 929.09 77.7911 935.579 77.9714C942.428 78.1517 944.411 71.3003 950.54 71.12C954.685 70.9397 958.29 72.3821 961.895 73.8245C953.063 75.4472 945.132 80.4956 942.969 89.8712C942.609 91.1333 943.87 92.5757 945.132 92.3954C950.359 91.6742 955.046 92.5757 959.552 89.3303C964.058 86.2652 964.599 80.3153 970.547 78.6926C971.989 78.332 972.17 76.8896 971.809 75.8078C965.681 64.8095 973.431 62.8262 970.367 57.0566C968.024 52.5491 961.535 51.1067 957.389 49.484C955.587 48.7628 953.243 50.7461 954.685 52.5491C957.93 56.696 951.08 60.302 958.651 68.0549C955.406 67.1534 952.162 66.6125 948.917 66.0716C939.364 55.6142 922.421 58.1384 915.211 70.0382Z" fill="#A38E97"/>
<path d="M997.044 31.0932C997.044 25.5039 988.392 26.0448 988.392 31.6341C988.392 37.2234 997.044 36.6825 997.044 31.0932Z" fill="#A38E97"/>
<path d="M1015.25 34.3387H1015.97C1021.56 34.3387 1021.02 25.6843 1015.43 25.6843H1014.71C1009.3 25.6843 1009.84 34.3387 1015.25 34.3387Z" fill="#A38E97"/>
<path d="M1028.77 13.9648C1028.77 8.37547 1020.12 8.91637 1020.12 14.5057C1020.12 19.9147 1028.77 19.3738 1028.77 13.9648Z" fill="#A38E97"/>
<path d="M984.246 45.337C984.246 50.9263 992.898 50.3854 992.898 44.7961C992.718 39.2068 984.246 39.7477 984.246 45.337Z" fill="#A38E97"/>
<path d="M741.089 21.5374C744.153 32.5357 738.926 41.1901 745.235 49.4839C746.136 50.5657 747.578 49.8445 747.939 48.7627C747.939 48.5824 748.119 48.5824 748.119 48.4021C747.218 54.7126 751.904 57.5974 753.707 64.0882C754.067 65.3503 756.05 64.6291 756.41 63.367C756.771 61.9246 757.312 60.6625 757.852 59.2201C757.312 67.1533 764.702 70.0381 765.783 79.2334C765.964 81.0364 767.946 79.7743 768.848 78.5122C770.65 75.8077 769.749 72.0214 769.929 68.776C773.174 79.594 780.924 77.2501 790.478 86.806C791.559 87.8878 793.902 85.9045 792.821 84.6424C785.07 75.4471 791.018 69.4972 782.366 61.3837C785.25 62.4655 788.134 63.367 791.379 63.1867C793.001 63.0064 793.902 60.4822 792.28 60.1216C785.07 58.4989 786.512 51.2869 778.04 49.4839C780.744 49.6642 783.448 49.1233 786.332 47.6809C787.413 47.14 787.774 44.7961 786.332 44.7961C776.959 44.7961 771.732 33.2569 762.899 33.7978C765.783 33.4372 768.487 32.1751 770.47 29.2903C771.191 28.2085 770.29 26.7661 769.028 26.7661C765.062 26.9464 752.084 29.2903 744.694 23.701C747.939 29.11 753.526 31.6342 761.097 30.7327C756.951 31.8145 753.166 31.8145 749.381 29.6509C754.247 37.2235 761.638 43.8946 770.83 45.337C765.062 45.1567 759.835 42.8128 755.149 39.3871C761.097 46.0582 768.848 53.8111 777.5 56.155C770.83 55.0732 764.882 50.9263 759.655 46.7794C766.504 54.5323 772.993 62.6458 779.122 71.1199C773.174 63.9079 767.225 56.8762 760.556 50.3854C762.899 55.7944 765.603 61.7443 765.603 67.6942C765.062 62.6458 756.771 45.1567 751.724 39.928C753.166 44.7961 756.05 51.8278 754.428 57.0565C755.149 53.8111 749.561 38.8462 747.758 34.8796C747.578 37.9447 747.218 40.8295 746.677 43.7143C746.677 43.7143 746.677 43.7143 746.677 43.8946C746.677 44.0749 746.497 44.4355 746.497 44.6158C746.857 39.7477 745.415 29.11 741.089 21.5374Z" fill="#A38E97"/>
<path d="M798.409 -1H783.087C780.023 0.622702 776.959 1.7045 773.534 2.4257C781.465 2.606 791.018 2.4257 798.409 -1Z" fill="#A38E97"/>
<path d="M774.075 17.03C775.517 17.2103 775.877 15.5876 775.517 14.5058C775.517 14.3255 775.337 14.3255 775.337 14.1452C779.302 19.0133 784.529 17.7512 790.478 20.8163C791.559 21.3572 792.46 19.3739 791.92 18.2921C791.199 17.03 790.658 15.7679 789.937 14.3255C795.344 20.2754 802.374 16.8497 809.945 22.2587C811.387 23.3405 811.927 20.9966 811.567 19.5542C810.846 16.3088 807.421 14.5058 805.258 11.9816C815.352 17.2103 818.957 9.81801 832.476 9.27711C834.098 9.27711 834.278 6.21201 832.476 6.03171C824.004 5.49081 821.481 1.1636 816.434 -1H799.31C794.263 2.2454 787.954 3.3272 782.186 4.40901C792.641 4.76961 802.915 5.67111 813.189 6.93321C803.996 6.39231 794.623 5.85141 785.431 6.21201C790.838 8.19531 797.147 10.3589 801.473 14.5058C797.327 11.4407 778.942 5.49081 771.912 5.49081C776.418 7.83471 783.628 10.5392 786.152 15.227C784.349 12.5225 769.569 6.21201 765.423 4.76961C767.586 6.93321 769.388 9.09681 771.011 11.621C771.011 11.621 771.011 11.621 771.011 11.8013C771.191 11.9816 771.191 12.1619 771.371 12.3422C768.127 8.91651 759.475 2.7863 751.003 0.622702C761.097 6.03171 763.801 15.7679 774.075 17.03Z" fill="#A38E97"/>
<path d="M781.105 -1H764.882C764.161 -0.6394 763.44 -0.278799 762.539 -0.098499C768.667 1.1636 775.156 0.983302 781.105 -1Z" fill="#A38E97"/>
<path d="M735.682 28.2084C735.682 24.6024 730.274 24.963 730.274 28.569C730.274 31.9947 735.682 31.6341 735.682 28.2084Z" fill="#A38E97"/>
<path d="M753.166 18.1116H753.526C754.968 18.1116 756.23 16.6692 756.05 15.2268C756.05 13.6041 754.608 12.7026 753.166 12.7026H752.805C751.363 12.7026 750.102 14.145 750.282 15.5874C750.282 17.2101 751.724 18.1116 753.166 18.1116Z" fill="#A38E97"/>
<path d="M838.424 37.2235C836.081 51.1066 801.653 34.6993 789.757 24.2419C788.495 22.7995 786.332 27.6676 788.495 28.7494C822.021 46.7794 823.644 84.8228 800.211 103.033C789.757 104.115 786.512 92.9363 779.122 90.0515C772.272 87.5273 763.981 88.0682 757.312 90.4121C755.329 91.1333 755.509 94.0181 757.492 94.559C765.603 96.362 770.47 104.656 777.86 108.442C781.285 110.065 785.611 110.425 789.937 109.704C780.023 114.392 768.667 114.933 757.852 112.589C754.968 110.786 753.166 106.278 751.183 104.115C741.45 93.8378 729.012 94.559 720 96.5423C718.197 96.9029 716.575 97.4438 714.953 97.9847C712.429 98.7059 713.511 102.132 715.674 102.132C717.116 102.312 718.558 102.672 719.82 103.213C726.489 106.278 731.175 114.572 737.304 118.178C744.694 122.325 753.166 118.719 761.277 118.719C772.633 118.539 795.525 114.933 809.043 100.148C823.644 84.2819 825.807 62.6459 815.713 45.6976C835.901 66.6125 831.394 101.23 817.515 127.374C810.305 133.324 801.112 124.849 792.821 125.931C785.611 127.013 779.482 132.422 774.075 137.11C772.272 138.552 773.534 141.798 775.877 140.896C785.07 137.47 793.001 145.404 802.014 142.519C805.078 141.617 807.782 140.175 810.485 138.733C791.739 160.369 783.808 160.188 777.319 160.729C772.993 160.729 768.667 160.008 764.702 158.385C759.294 156.041 756.41 149.731 752.805 145.404C747.939 139.634 741.45 137.651 734.24 137.11C731.896 136.93 730.635 139.814 732.798 141.076C742.171 146.485 733.699 154.599 752.805 161.27C742.531 163.253 731.716 160.369 720.901 156.763C720.36 156.582 720 156.582 719.639 156.582C718.017 156.582 717.296 157.844 719.459 158.746C719.459 158.746 719.639 158.746 719.639 158.926C735.862 166.499 751.724 168.843 779.843 165.056C761.457 174.432 740.729 176.956 719.639 178.579C710.266 179.3 700.713 179.841 691.16 180.742C678.002 180.382 677.1 162.172 667.367 155.5C660.157 150.452 650.423 153.337 642.853 155.5C640.51 156.222 641.231 159.106 643.033 159.647C652.226 162.712 651.685 170.465 658.895 176.596C661.419 178.759 670.431 180.382 673.135 181.644C645.557 184.709 615.094 183.627 603.739 178.579C601.215 177.497 601.035 179.48 603.739 180.742C613.833 185.25 639.428 188.856 661.419 185.971C658.174 187.594 633.84 194.986 621.043 204.722C618.88 206.345 620.862 207.427 623.206 205.804C631.317 200.035 659.977 191.02 666.105 188.676C656.191 196.248 650.243 209.591 645.557 220.589C644.475 223.113 646.097 224.736 647.179 222.212C653.127 207.968 666.105 188.676 683.049 185.971C691.701 184.889 700.533 184.529 709.365 183.988C695.306 189.938 683.409 199.313 675.839 213.197C674.757 215 677.281 217.163 678.903 215.901C687.915 208.869 699.091 210.492 708.824 204.362C713.691 201.297 716.575 198.412 719.82 195.527C726.489 189.217 733.519 183.267 759.114 178.038C772.633 175.333 796.246 163.253 810.125 146.305C803.816 160.369 805.619 168.302 807.962 175.694C782.186 179.661 791.199 192.462 782.366 203.1C781.285 204.362 783.628 206.165 784.89 204.903C790.117 200.035 802.194 199.313 805.619 190.298C802.735 204.182 815.713 213.557 828.33 222.392C829.412 223.113 831.214 223.113 831.755 221.671C834.459 213.737 835.18 205.444 831.034 197.871C828.871 194.085 826.888 190.659 823.824 187.594C823.644 187.414 823.463 187.414 823.283 187.233C833.918 188.676 844.192 184.889 849.059 173.17C849.6 171.727 848.698 169.924 846.896 170.105C840.046 170.465 833.557 172.268 826.708 169.203C824.184 168.121 820.219 169.023 815.532 173.53C807.782 167.761 817.515 138.733 821.3 130.799C821.481 131.34 820.219 152.075 828.871 154.96C831.034 155.681 832.656 156.763 833.017 154.779C834.098 149.19 835.54 144.863 834.459 139.273C833.377 133.684 825.446 128.996 827.249 118.9C839.145 93.8378 838.604 68.0549 822.382 46.5991C840.407 46.9597 840.587 55.0732 847.256 58.3186C854.647 61.9247 863.118 61.3838 870.328 65.5307C872.131 66.4322 873.753 64.6292 873.393 62.8262C870.328 51.1066 858.792 46.9597 847.437 45.337C852.664 43.8946 857.531 41.9113 865.101 38.4856C865.101 38.4856 865.101 38.3053 865.281 38.3053C871.951 38.4856 878.62 39.2068 883.487 33.9781C887.272 30.0115 887.272 23.3404 889.976 18.6526C890.877 17.2102 889.435 15.5875 887.813 15.5875C882.225 15.5875 875.736 14.8663 871.23 19.1935C866.723 23.5207 864.921 29.2903 862.217 34.6993C858.071 37.0432 853.565 39.0265 849.059 40.4689C864.2 28.9297 854.827 16.3087 850.861 9.0967C850.14 7.65429 847.617 7.83459 847.076 9.277C844.553 16.3087 836.982 17.9314 836.982 26.2252C836.622 30.1918 839.145 33.6175 838.424 37.2235ZM814.631 187.414C826.347 191.921 831.034 205.804 828.33 217.343C816.794 209.23 804.717 200.395 811.567 185.971C812.468 186.512 813.55 186.873 814.631 187.414Z" fill="#A38E97"/>
<path d="M900.43 35.4206C900.43 29.8313 891.778 30.3722 891.778 35.9615C891.778 41.5508 900.43 41.0099 900.43 35.4206Z" fill="#A38E97"/>
<path d="M907.64 40.2886C907.64 45.8779 916.292 45.337 916.292 39.7477C916.292 34.1584 907.64 34.6993 907.64 40.2886Z" fill="#A38E97"/>
<path d="M906.919 52.7294C906.919 47.1401 898.267 47.681 898.267 53.2703C898.267 58.8596 906.919 58.1384 906.919 52.7294Z" fill="#A38E97"/>
<path d="M929.991 33.257C929.991 27.6677 921.339 28.2086 921.339 33.7979C921.339 39.3872 929.991 38.8463 929.991 33.257Z" fill="#A38E97"/>
<path d="M944.952 39.7477C944.952 34.1584 936.3 34.6993 936.3 40.2886C936.48 45.8779 944.952 45.337 944.952 39.7477Z" fill="#A38E97"/>
<path d="M983.886 24.6025C983.886 19.0132 975.234 19.5541 975.234 25.1434C975.234 30.7327 983.886 30.1918 983.886 24.6025Z" fill="#A38E97"/>
<path d="M968.745 38.8463C968.745 44.4356 977.397 43.8947 977.397 38.3054C977.397 32.716 968.745 33.2569 968.745 38.8463Z" fill="#A38E97"/>
<path d="M871.77 1.5242C871.77 0.442402 871.41 -0.459099 870.689 -1H864.38C863.659 -0.278799 863.118 0.803002 863.118 2.0651C863.118 7.65441 871.77 7.11351 871.77 1.5242Z" fill="#A38E97"/>
<path d="M886.01 46.9598C886.01 43.8947 883.667 42.272 880.783 42.272C878.44 42.272 876.637 44.6159 876.817 46.7795C876.817 48.0416 877.538 49.1234 878.259 49.6643C880.242 52.5491 886.19 51.4673 886.01 46.9598Z" fill="#A38E97"/>
<path d="M929.27 46.9596C929.27 41.3703 920.618 41.9112 920.618 47.5005C920.618 53.0899 929.27 52.3687 929.27 46.9596Z" fill="#A38E97"/>
</g>
<defs>
<clipPath id="clip0_642_3813">
<rect width="1442" height="91" fill="white" transform="translate(-1 -1)"/>
</clipPath>
</defs>
</svg>
