<svg width="52" height="52" viewBox="0 0 52 52" fill="none" xmlns="http://www.w3.org/2000/svg">
<g clip-path="url(#clip0_415_3349)">
<path d="M28.1328 0.183004C27.1375 0.68066 27.046 2.09238 27.9804 2.70175C28.1226 2.79316 28.8132 2.99628 29.5343 3.15878C31.7078 3.63613 32.7843 3.9916 34.7343 4.87519C37.5273 6.14472 40.0054 7.90175 42.3109 10.2682C45.6421 13.6908 47.8257 17.7939 48.8414 22.5572C49.1156 23.8471 49.1867 24.0096 49.5828 24.3041C50.2226 24.7713 51.0047 24.7306 51.5226 24.1924C51.9898 23.7049 52.0203 23.39 51.7359 22.0088C49.7047 12.015 42.1382 3.74785 32.3476 0.822847C31.2304 0.487692 29.0773 0.000190735 28.7218 0.000190735C28.5898 0.000190735 28.3257 0.0814419 28.1328 0.183004Z" fill="white"/>
<path d="M8.52097 3.23994C7.22096 3.65634 6.13425 4.56025 3.08737 7.78994C0.903774 10.0954 0.314711 11.2634 0.111586 13.5892C-0.182946 16.9001 0.934243 21.0946 3.40221 25.9493C4.43815 28.0009 4.90534 28.8032 6.22565 30.7735C11.2022 38.2282 17.7327 44.1696 25.4413 48.2728C29.8085 50.5985 33.5054 51.7868 36.8671 51.9595C39.2436 52.0915 41.3561 51.4212 42.9405 50.0501C43.1335 49.8876 44.3014 48.7196 45.5405 47.4399C47.5921 45.3376 47.8257 45.0532 48.2218 44.2712C48.9835 42.7478 48.9936 41.3767 48.2319 39.8126C47.8155 38.9696 47.714 38.8579 44.0374 35.1813C40.4725 31.6063 40.2288 31.3829 39.4975 31.0376C37.9436 30.3063 36.3491 30.3774 34.8358 31.2509C34.5819 31.4032 33.4343 32.4493 32.2764 33.597L30.1741 35.6688L29.1686 35.1306C24.6999 32.7743 18.8296 26.8634 16.6561 22.5368L16.26 21.7649L18.21 19.7946C20.2921 17.6923 20.7999 17.0626 21.135 16.1079C21.5819 14.8079 21.4905 13.5688 20.8507 12.2587C20.5155 11.5884 20.1702 11.2126 16.7171 7.75947C12.7866 3.829 12.4717 3.56494 11.2733 3.20947C10.5421 2.99619 9.24206 3.00634 8.52097 3.23994ZM10.796 6.19541C11.4257 6.48994 17.9967 13.0915 18.271 13.711C18.7991 14.879 18.5757 15.2649 15.7928 18.0274C14.5436 19.2563 13.4569 20.4142 13.3553 20.6071C13.071 21.1759 13.1928 22.2017 13.66 23.197C14.9702 25.9798 17.0827 28.7829 20.3022 31.9923C22.953 34.6431 25.6749 36.6845 28.4272 38.0962C29.5749 38.6954 29.7272 38.7462 30.3061 38.736C30.7022 38.736 31.0577 38.6649 31.2811 38.5532C31.4741 38.4517 32.6624 37.3446 33.9218 36.1056C35.1811 34.8665 36.3593 33.7696 36.5522 33.6681C37.06 33.4142 37.9538 33.4954 38.4616 33.8509C39.1827 34.3485 45.3577 40.6454 45.6015 41.1228C45.896 41.7118 45.896 42.3821 45.6015 42.9712C45.378 43.3978 42.1077 46.8306 40.9804 47.8056C39.3554 49.2274 37.0702 49.4001 33.3124 48.3845C30.5702 47.6431 26.335 45.5915 22.8514 43.3165C15.4374 38.4618 8.653 30.611 5.22018 22.9024C3.01627 17.9462 2.47799 14.1478 3.63581 11.7813C3.83893 11.3548 4.45846 10.6642 6.24596 8.85635C7.71862 7.35322 8.75456 6.38837 9.03893 6.24619C9.60768 5.9415 10.2272 5.93134 10.796 6.19541Z" fill="white"/>
<path d="M27.6452 9.64862C26.9546 10.0752 26.7108 10.9892 27.1171 11.6494C27.4014 12.1166 27.6452 12.2385 28.8741 12.5431C31.6874 13.2338 33.9522 14.5236 35.8717 16.5447C37.6897 18.4439 38.9186 20.7392 39.4569 23.2072C39.6702 24.1619 39.8124 24.4869 40.178 24.7713C41.0007 25.4213 42.321 24.9439 42.5038 23.9283C42.6561 23.1564 41.8944 20.5057 41.0108 18.7486C38.746 14.1783 34.6428 10.8877 29.7069 9.68924C28.478 9.39471 28.0819 9.38455 27.6452 9.64862Z" fill="white"/>
</g>
<defs>
<clipPath id="clip0_415_3349">
<rect width="52" height="52" fill="white"/>
</clipPath>
</defs>
</svg>
