<svg width="52" height="52" viewBox="0 0 52 52" fill="none" xmlns="http://www.w3.org/2000/svg">
<g clip-path="url(#clip0_415_3343)">
<path d="M24.4389 0.0610542C24.2459 0.0813675 23.6467 0.152462 23.1185 0.213398C16.9131 0.914181 10.7889 4.23528 6.69588 9.08996C0.297443 16.6868 -1.16506 27.1681 2.9076 36.2782L3.3951 37.365L1.67869 43.7431C0.338068 48.6892 -0.0377132 50.2228 0.00291179 50.5681C0.0740056 51.3095 0.652912 51.8884 1.39432 51.9595C1.73963 52.0001 3.26307 51.6243 8.21932 50.2939L14.6076 48.5673L15.6842 49.0548C26.4498 53.8689 38.9826 50.8626 46.3256 41.7118C48.7326 38.7157 50.6623 34.6126 51.3935 30.9767C51.8303 28.7829 51.9115 27.9806 51.9014 25.5939C51.9014 22.9532 51.7592 21.7345 51.1498 19.3376C50.6623 17.4282 50.2053 16.1892 49.3217 14.3712C48.1232 11.9337 46.5998 9.78059 44.66 7.7798C40.6178 3.63605 35.7428 1.14777 29.9232 0.254025C28.9076 0.101681 25.2209 -0.0303497 24.4389 0.0610542ZM28.2982 3.36184C33.549 3.83918 38.3834 6.10402 42.1209 9.84153C48.9256 16.6462 50.6318 26.965 46.3764 35.5978C43.0553 42.3314 36.6365 46.8915 29.0701 47.8868C27.5568 48.0798 24.8959 48.0798 23.3521 47.8868C20.9959 47.5821 18.7615 46.9118 16.4256 45.8048C15.7146 45.4696 15.024 45.1954 14.892 45.1954C14.7599 45.1954 12.2615 45.8353 9.32635 46.6173C6.40135 47.4095 3.98416 48.029 3.95369 48.0087C3.93338 47.9782 4.55291 45.5712 5.3451 42.6462C6.12713 39.7212 6.76698 37.2126 6.76698 37.0704C6.76698 36.9384 6.49276 36.2478 6.1576 35.5368C5.00994 33.1298 4.39041 31.0173 4.06541 28.5189C3.84198 26.7212 3.91307 23.6337 4.21776 21.8868C5.32479 15.6306 8.79823 10.3392 14.0795 6.88605C18.2131 4.17434 23.342 2.9048 28.2982 3.36184Z" fill="#DFD8D2" fill-opacity="0.4"/>
<path d="M15.7249 16.2501C14.0491 16.4837 12.6476 17.6618 12.1499 19.2868C11.9569 19.8962 11.9468 20.2415 11.9468 26.0001C11.9468 31.7587 11.9569 32.104 12.1499 32.7134C12.678 34.4298 14.0491 35.5267 15.928 35.7603C16.4765 35.8212 19.3202 35.8517 23.6366 35.8314C30.3296 35.7908 30.4921 35.7908 31.0608 35.5775C32.3405 35.09 33.2749 34.1861 33.7624 32.9572L33.9351 32.5103L35.4585 33.3837C36.7788 34.1454 37.0632 34.2673 37.5507 34.3079C37.8655 34.3283 38.3022 34.2978 38.5054 34.2267C39.0538 34.0439 39.7038 33.3533 39.8663 32.8048C39.9577 32.4595 39.978 30.7431 39.9577 25.7361L39.9272 19.1345L39.6429 18.7079C39.4905 18.4743 39.1757 18.1595 38.9421 18.0072C38.5765 17.7634 38.4241 17.7228 37.7538 17.7228H36.9819L35.4585 18.6064L33.9351 19.49L33.6913 18.8806C33.4272 18.2001 32.6554 17.2861 32.0155 16.89C31.8022 16.7478 31.3655 16.5345 31.0507 16.4228C30.4921 16.2095 30.3397 16.2095 23.4233 16.1892C19.5437 16.179 16.0804 16.2095 15.7249 16.2501ZM30.0147 19.5306C30.2077 19.6017 30.4616 19.7845 30.5733 19.9368C30.7866 20.2212 30.7866 20.3025 30.7866 26.0001C30.7866 31.7079 30.7866 31.779 30.5733 32.0634C30.1671 32.6118 30.1569 32.6118 22.7733 32.5814C16.4562 32.5509 15.9382 32.5408 15.6944 32.3681C15.5522 32.2767 15.3796 32.0736 15.3187 31.9314C15.2272 31.7486 15.1968 30.0728 15.1968 25.99C15.1968 21.2876 15.2171 20.2517 15.339 20.0283C15.4812 19.7439 15.7757 19.5509 16.1616 19.4697C16.2733 19.4392 19.3608 19.4189 23.0171 19.4189C27.9226 19.4087 29.7608 19.4392 30.0147 19.5306ZM36.728 25.99V30.3572L35.4382 29.6158L34.1382 28.8642V26.0001V23.1361L35.4077 22.3845C36.1085 21.9783 36.6874 21.6431 36.7077 21.6329C36.7179 21.6329 36.728 23.5931 36.728 25.99Z" fill="#DFD8D2" fill-opacity="0.4"/>
</g>
<defs>
<clipPath id="clip0_415_3343">
<rect width="52" height="52" fill="white"/>
</clipPath>
</defs>
</svg>
