<svg width="52" height="52" viewBox="0 0 52 52" fill="none" xmlns="http://www.w3.org/2000/svg">
<path d="M23.2579 1.77732C12.0759 3.15858 3.28058 12.1367 2.12277 23.3492C1.95011 25.0047 2.05167 28.1531 2.33605 29.7476C2.77277 32.2562 3.50402 34.4703 4.64152 36.7351L5.21027 37.8726L3.51417 44.0781C2.5798 47.5008 1.82823 50.3039 1.84855 50.314C1.86886 50.3344 4.71261 49.593 8.17589 48.6789C13.2134 47.3484 14.5236 47.0336 14.7267 47.1148C14.8689 47.1656 15.529 47.4601 16.1993 47.7648C18.3728 48.75 20.6579 49.4 23.065 49.725C24.7407 49.9484 27.6759 49.9484 29.3009 49.725C34.6431 48.9734 39.4064 46.6172 43.1642 42.8594C45.1345 40.8992 46.4447 39.1015 47.6837 36.6539C48.8009 34.45 49.5931 32.043 50.04 29.5039C50.2939 28.0211 50.2939 23.6437 50.04 22.0898C49.6032 19.4594 48.9228 17.357 47.7751 15.0312C44.4947 8.41951 38.4415 3.70701 31.2001 2.13279C28.9454 1.64529 25.5837 1.49295 23.2579 1.77732ZM29.6056 5.98201C32.5204 6.52029 34.9376 7.49529 37.3243 9.08982C41.4072 11.8219 44.4032 16.057 45.5915 20.7492C46.465 24.2023 46.3939 28.1226 45.4087 31.4437C43.804 36.8062 39.9954 41.3258 34.9986 43.7633C32.0939 45.1851 29.4126 45.8047 26.1525 45.8047C22.415 45.8047 19.1142 44.9008 15.7321 42.9508L15.1634 42.6258L11.4259 43.6109C9.37433 44.1492 7.66808 44.5758 7.65792 44.5555C7.63761 44.5351 8.05402 42.9305 8.5923 40.9805C9.12042 39.0305 9.5673 37.3648 9.5673 37.2836C9.57746 37.1922 9.31339 36.6844 8.98839 36.1562C4.19464 28.3562 5.45402 18.0781 11.9845 11.5781C15.2345 8.34842 19.3579 6.3578 23.9689 5.78904C25.2181 5.6367 28.3259 5.74842 29.6056 5.98201Z" fill="white"/>
<path d="M16.6666 14.8485C16.0877 15.1329 15.0112 16.4024 14.5643 17.3368C13.6807 19.1649 13.701 21.4805 14.6151 23.6133C15.7322 26.2438 18.6674 29.9813 21.5619 32.4594C23.5932 34.1961 25.2893 35.2219 27.7776 36.1969C30.3268 37.1922 30.8143 37.304 32.5002 37.304C33.8307 37.304 34.044 37.2836 34.6533 37.05C35.669 36.6641 36.4307 36.1868 37.1822 35.4454C37.7713 34.8665 37.8932 34.6836 38.0861 34.0743C38.3197 33.3024 38.4619 32.0735 38.3502 31.6469C38.2994 31.4235 38.0049 31.2407 36.5627 30.5196C33.9221 29.1993 32.8557 28.7422 32.4088 28.7422C32.033 28.7422 31.9721 28.7829 31.5252 29.3719C30.4994 30.7227 29.5549 31.7688 29.3111 31.8297C29.0166 31.9008 28.4377 31.6876 27.1072 31.0172C24.944 29.9407 23.1869 28.4883 21.6736 26.5485C20.851 25.4922 20.1096 24.2938 20.1096 24.0094C20.1096 23.8977 20.4955 23.2985 20.9627 22.6891C21.8768 21.5008 22.1408 21.054 22.1408 20.7188C22.1408 20.6071 21.9377 20.0485 21.7041 19.4696C21.4604 18.9008 20.9729 17.7227 20.6174 16.8594C20.1705 15.7829 19.8658 15.1837 19.6424 14.9501L19.3174 14.6251H18.2205C17.2963 14.6251 17.0424 14.6657 16.6666 14.8485Z" fill="white"/>
</svg>
